<?xml version="1.0" encoding="UTF-8"?>
<svg version="1.1" xmlns="http://www.w3.org/2000/svg" width="504" height="640">
<path d="M0 0 C1.32741211 0.25740967 1.32741211 0.25740967 2.68164062 0.52001953 C24.58150419 4.93709728 45.17697285 12.9293443 64.08203125 24.87109375 C66.10231891 26.15004802 66.10231891 26.15004802 69 27 C69.27070313 27.55429688 69.54140625 28.10859375 69.8203125 28.6796875 C71.5430841 32.06818528 74.19685387 34.48538835 76.875 37.125 C77.40480469 37.66253906 77.93460937 38.20007813 78.48046875 38.75390625 C81.17806758 41.43811749 83.60389276 43.341436 87 45 C87.33 45.99 87.66 46.98 88 48 C88.59425781 48.5878125 89.18851562 49.175625 89.80078125 49.78125 C92.44759271 52.45156777 94.22792007 55.29408311 96.1875 58.5 C96.54263672 59.06847656 96.89777344 59.63695312 97.26367188 60.22265625 C99.02898934 63.11013947 100.37865167 65.66593578 101 69 C101.63270867 70.34977849 102.30062468 71.68352881 103 73 C103.33 73.70125 103.66 74.4025 104 75.125 C104.97140377 77.16551151 104.97140377 77.16551151 107 79 C109.75231295 84.98238588 111.29462008 90.71589726 111.72265625 97.26171875 C112.17797901 101.75722938 113.26570447 106.11050037 114.28125 110.5078125 C117.68502622 127.04572521 117.49340104 145.41554732 113.703125 161.8515625 C113.10806069 164.51612823 112.87289106 166.79246731 112.8125 169.5 C112.39392132 174.1862613 110.24640982 178.15289866 108.1875 182.3125 C107.84372314 183.00730469 107.49994629 183.70210937 107.14575195 184.41796875 C105.1716295 188.22815018 103.19640219 191.0682237 100 194 C99.71125 194.66 99.4225 195.32 99.125 196 C97.45495194 198.96897434 94.82900324 200.14219763 92 202 C90.20449188 203.43269895 88.4129388 204.87036598 86.625 206.3125 C74.20657069 215.61865629 60.95889275 219.19078538 45.78613281 221.30908203 C23.599904 224.42352264 2.08945669 230.2687608 -17.375 241.625 C-18.00003418 241.98505127 -18.62506836 242.34510254 -19.26904297 242.71606445 C-23.05780876 245.03329597 -24.79758303 247.22626801 -27 251 C-28.9921875 251.60546875 -28.9921875 251.60546875 -31 252 C-32.6899755 253.46787189 -32.6899755 253.46787189 -34.125 255.3125 C-34.62257812 255.90675781 -35.12015625 256.50101562 -35.6328125 257.11328125 C-37.06589372 258.97616816 -37.06589372 258.97616816 -38.0546875 261.16796875 C-39 263 -39 263 -41 264 C-41.71024156 265.64856882 -42.36945436 267.31933513 -43 269 C-43.85726979 270.77948425 -44.7322722 272.55053724 -45.625 274.3125 C-46.07101563 275.19550781 -46.51703125 276.07851563 -46.9765625 276.98828125 C-47.48316406 277.98408203 -47.48316406 277.98408203 -48 279 C-48.66 279 -49.32 279 -50 279 C-50 280.98 -50 282.96 -50 285 C-50.66 285 -51.32 285 -52 285 C-55.07925222 297.64586106 -55.97866194 309.64883233 -53.625 322.5 C-53.43599121 323.54232788 -53.43599121 323.54232788 -53.24316406 324.60571289 C-52.58046009 327.97005108 -51.92828749 330.10756876 -50 333 C-49.10869587 335.6739124 -48.52268466 338.23723823 -48 341 C-47.34 341 -46.68 341 -46 341 C-44.68302963 343.74793818 -43.37129631 346.49817185 -42.0625 349.25 C-41.68931641 350.02730469 -41.31613281 350.80460937 -40.93164062 351.60546875 C-40.57392578 352.35957031 -40.21621094 353.11367188 -39.84765625 353.890625 C-39.51773682 354.58188477 -39.18781738 355.27314453 -38.84790039 355.98535156 C-38 358 -38 358 -37.50952148 360.10058594 C-37.06650101 362.25943442 -37.06650101 362.25943442 -35 364.5 C-33.04953057 366.93808679 -32.67938117 368.08836641 -32 371 C-31.00026639 372.00026632 -30.00022532 373.00022537 -29 374 C-27.15454574 376.72902441 -25.53332078 379.59159215 -23.875 382.4375 C-23.41996094 383.20126953 -22.96492187 383.96503906 -22.49609375 384.75195312 C-22.06167969 385.49251953 -21.62726563 386.23308594 -21.1796875 386.99609375 C-20.58776611 388.00434204 -20.58776611 388.00434204 -19.98388672 389.03295898 C-19 391 -19 391 -18.55126953 393.06274414 C-17.87192153 395.45008975 -16.79456084 396.32242741 -15 398 C-13.30986961 400.51726887 -11.86027136 403.17015433 -10.375 405.8125 C-9.96765625 406.51181641 -9.5603125 407.21113281 -9.140625 407.93164062 C-6.86359658 411.96167934 -5.42746432 415.30526258 -5 420 C-4.34 420 -3.68 420 -3 420 C-2.690625 420.94875 -2.38125 421.8975 -2.0625 422.875 C-1.09793236 425.71196365 -0.46611369 427.47562209 1.5 429.6875 C3.46820268 432.72181247 3.65772952 435.44038696 4 439 C4.66 439 5.32 439 6 439 C8.47960172 444.78573735 9.20526438 448.73943647 9 455 C9.15984375 455.74636719 9.3196875 456.49273438 9.484375 457.26171875 C10.6343282 463.36866716 10.13076824 469.80312368 10 476 C9.97486328 477.55460938 9.97486328 477.55460938 9.94921875 479.140625 C9.56308272 486.86334557 7.10033887 493.27959335 2.125 499.25 C1.073125 500.11625 1.073125 500.11625 0 501 C-0.49113281 501.43441406 -0.98226562 501.86882812 -1.48828125 502.31640625 C-3.29926458 503.91090422 -5.14608387 505.45568418 -7 507 C-7.65871094 507.57105469 -8.31742188 508.14210938 -8.99609375 508.73046875 C-24.95502622 521.99541629 -43.89963274 524.75874567 -63.875 524.5625 C-64.77197601 524.55923706 -65.66895203 524.55597412 -66.59310913 524.5526123 C-88.18466427 524.43829122 -110.46932119 521.81911735 -129.6875 511.1875 C-130.63266479 510.6769104 -130.63266479 510.6769104 -131.59692383 510.15600586 C-136.14839077 507.63416035 -140.22683799 504.76019354 -144.16796875 501.34765625 C-145.91879642 499.86429138 -145.91879642 499.86429138 -148.11328125 499.55859375 C-150 499 -150 499 -150.9765625 497.2265625 C-151.31429687 496.49179687 -151.65203125 495.75703125 -152 495 C-153.40548807 493.4100077 -154.86942784 491.87056835 -156.375 490.375 C-157.53128906 489.21097656 -157.53128906 489.21097656 -158.7109375 488.0234375 C-160.78064285 486.19390274 -162.54102565 485.17814595 -165 484 C-165.69937532 482.68352881 -166.36729133 481.34977849 -167 480 C-167.99 479.34 -168.98 478.68 -170 478 C-170.495 476.515 -170.495 476.515 -171 475 C-171.66 474.67 -172.32 474.34 -173 474 C-173.495 472.515 -173.495 472.515 -174 471 C-174.556875 470.46375 -175.11375 469.9275 -175.6875 469.375 C-179.26109845 465.7048178 -183.30411075 460.9839731 -184.48828125 455.90625 C-185.12981105 453.51642905 -186.22141729 452.68748457 -188 451 C-191.24171479 446.08121311 -193.13108656 441.83413307 -194 436 C-195.19844693 433.25855266 -196.56726807 430.62556456 -198 428 C-198.66 428 -199.32 428 -200 428 C-200.64995297 426.58521865 -201.29478722 425.16808513 -201.9375 423.75 C-202.29714844 422.96109375 -202.65679687 422.1721875 -203.02734375 421.359375 C-203.90385942 419.23320847 -204.48744881 417.23490791 -205 415 C-206.06073034 411.81780897 -206.63772045 410.36227955 -209 408 C-210.89367762 404.21264476 -211.19575936 401.20882632 -211 397 C-211.66 397 -212.32 397 -213 397 C-214.18229179 393.79721107 -215.34296818 390.5869918 -216.5 387.375 C-217.00080078 386.01955078 -217.00080078 386.01955078 -217.51171875 384.63671875 C-219.18759346 379.95110988 -220.47046671 376.05751716 -220 371 C-220.66 371 -221.32 371 -222 371 C-222.66666667 366.33333333 -223.33333333 361.66666667 -224 357 C-224.66 357 -225.32 357 -226 357 C-226.51938757 353.43848521 -227.01201474 349.89094309 -227.40625 346.3125 C-227.96779353 341.79079 -228.9782852 337.42114446 -230.0625 333 C-230.3419043 331.83791016 -230.3419043 331.83791016 -230.62695312 330.65234375 C-231.08076178 328.76729241 -231.53982492 326.8835073 -232 325 C-232.66 325 -233.32 325 -234 325 C-233.94328125 323.84113281 -233.8865625 322.68226563 -233.828125 321.48828125 C-233.83316299 315.01572018 -235.15346187 308.75650311 -236.33633423 302.41885376 C-238.83603399 288.935228 -240.82996148 275.44494458 -242.3125 261.8125 C-242.39326782 261.08098724 -242.47403564 260.34947449 -242.55725098 259.59579468 C-244.28240854 243.82759657 -245.20773185 228.11244615 -245.1875 212.25 C-245.18756042 211.51286774 -245.18762085 210.77573547 -245.18768311 210.01626587 C-245.16991798 194.72400348 -243.87693745 179.9645242 -241.3671875 164.88671875 C-240.88508058 161.09653778 -240.97292682 157.40230235 -241.0625 153.58984375 C-240.96496743 149.54833768 -240.02337969 145.90163505 -239 142 C-238.34 142 -237.68 142 -237 142 C-236.322781 139.48159185 -235.65808826 136.96091276 -235 134.4375 C-234.71382812 133.38079102 -234.71382812 133.38079102 -234.421875 132.30273438 C-233.24487332 127.74185287 -232.95445471 123.73671046 -233 119 C-232.23886641 116.17746293 -231.13983606 113.70711065 -230 111 C-229.34 111 -228.68 111 -228 111 C-228.04125 110.05125 -228.0825 109.1025 -228.125 108.125 C-228 105 -228 105 -226 103 C-224.88950805 101.02609536 -224.88950805 101.02609536 -224.62890625 98.73828125 C-223.88594844 95.50341527 -222.5705455 93.07138886 -220.9375 90.1875 C-220.38964844 89.21167969 -219.84179688 88.23585938 -219.27734375 87.23046875 C-218.85582031 86.49441406 -218.43429688 85.75835937 -218 85 C-217.34 85 -216.68 85 -216 85 C-215.91492188 84.30261719 -215.82984375 83.60523438 -215.7421875 82.88671875 C-214.82073852 79.30276717 -213.19908066 76.87043944 -211.125 73.8125 C-210.42632812 72.76707031 -209.72765625 71.72164063 -209.0078125 70.64453125 C-207 68 -207 68 -204 66 C-203.71125 65.360625 -203.4225 64.72125 -203.125 64.0625 C-202 62 -202 62 -199.7109375 60.65625 C-196.79039543 58.87194187 -194.83655841 56.9300957 -192.5 54.4375 C-188.03604187 49.84542222 -183.29705388 45.98060926 -178.11523438 42.22436523 C-176.71113638 41.19220114 -175.35081517 40.10097788 -174 39 C-174 38.34 -174 37.68 -174 37 C-173.41565186 36.87794189 -172.83130371 36.75588379 -172.22924805 36.63012695 C-169.95642568 35.98768313 -168.33704002 35.1524457 -166.33203125 33.91796875 C-165.61684326 33.48653564 -164.90165527 33.05510254 -164.16479492 32.6105957 C-163.3885376 32.14097412 -162.61228027 31.67135254 -161.8125 31.1875 C-137.2330531 16.69303541 -111.09832912 5.37687292 -83 0 C-82.15550293 -0.16371094 -81.31100586 -0.32742187 -80.44091797 -0.49609375 C-54.58873988 -5.25096899 -25.7825975 -5.01654564 0 0 Z M105 80 C106 82 106 82 106 82 Z M106 82 C107 84 107 84 107 84 Z M107 85 C108 87 108 87 108 87 Z M-227 106 C-226 108 -226 108 -226 108 Z M-230 114 C-229 116 -229 116 -229 116 Z M-231 116 C-230 119 -230 119 -230 119 Z M-232 120 C-231 123 -231 123 -231 123 Z M-239 147 C-238 151 -238 151 -238 151 Z M-240 152 C-240 153.65 -240 155.3 -240 157 C-239.67 157 -239.34 157 -239 157 C-239 155.35 -239 153.7 -239 152 C-239.33 152 -239.66 152 -240 152 Z M111 169 C112 171 112 171 112 171 Z M110 172 C111 174 111 174 111 174 Z M109 174 C110 176 110 176 110 176 Z M108 177 C109 179 109 179 109 179 Z M-47 344 C-46 346 -46 346 -46 346 Z M-226 350 C-225 353 -225 353 -225 353 Z M-222 364 C-221 367 -221 367 -221 367 Z M-213 392 C-212 394 -212 394 -212 394 Z M-210 400 C-209 402 -209 402 -209 402 Z M-209 403 C-208 405 -208 405 -208 405 Z M-208 405 C-207 407 -207 407 -207 407 Z M1 432 C2 434 2 434 2 434 Z M5 442 C6 444 6 444 6 444 Z M6 445 C7 447 7 447 7 447 Z M7 448 C8 451 8 451 8 451 Z M7 485 C8 487 8 487 8 487 Z M6 487 C7 489 7 489 7 489 Z " fill="#3F3F3F" transform="translate(267,116)"/>
<path d="M0 0 C1.64838867 -0.02416992 1.64838867 -0.02416992 3.33007812 -0.04882812 C14.22171177 -0.05524629 23.86785118 2.09102085 33.5 7.1875 C34.15033203 7.51363281 34.80066406 7.83976563 35.47070312 8.17578125 C40.02712724 10.51544358 44.05524003 13.29100782 48.1875 16.3125 C48.97125 16.704375 49.755 17.09625 50.5625 17.5 C52.1875 18.3125 52.1875 18.3125 53.1875 20.3125 C54.1775 21.0240625 54.1775 21.0240625 55.1875 21.75 C57.1875 23.3125 57.1875 23.3125 58.1875 26.3125 C58.95578125 27.07046875 59.7240625 27.8284375 60.515625 28.609375 C66.34096052 34.5028431 70.85578199 42.66961023 71.04541016 51.07543945 C71.18620401 53.29209588 71.60614343 55.18202374 72.17578125 57.32421875 C73.47803241 63.00201053 73.57048998 68.56850752 73.5625 74.375 C73.56233887 75.47465088 73.56217773 76.57430176 73.56201172 77.70727539 C73.45239036 85.58097361 72.44082645 92.50442146 70.17578125 100.0234375 C69.32082742 102.8687779 68.85835145 105.44129616 68.5 108.375 C67.59862562 113.21265148 65.28712837 117.12272381 62.8125 121.3125 C62.23109253 122.30262085 62.23109253 122.30262085 61.63793945 123.31274414 C59.52476019 126.72394943 57.94908893 128.83322345 54.1875 130.3125 C54.043125 130.951875 53.89875 131.59125 53.75 132.25 C52.91544506 135.31003477 50.86833795 135.75387329 48.1875 137.3125 C46.20074604 139.57519201 44.53333653 141.62082695 43.1875 144.3125 C42.63578125 144.43238281 42.0840625 144.55226562 41.515625 144.67578125 C38.20875652 145.58017649 35.71861765 147.56900565 32.9375 149.5 C27.79389073 152.93752334 22.68014355 155.60585104 16.875 157.75 C16.24239258 157.98420654 15.60978516 158.21841309 14.95800781 158.4597168 C-4.95094229 165.44952315 -26.04150605 163.96719178 -45.0625 155.125 C-51.70791966 151.63653141 -57.18689345 147.232522 -62.8125 142.3125 C-65.09921953 140.54050331 -67.4028496 138.9189336 -69.8125 137.3125 C-70.1425 136.3225 -70.4725 135.3325 -70.8125 134.3125 C-71.40675781 133.75175781 -72.00101562 133.19101563 -72.61328125 132.61328125 C-75.5229188 129.56927323 -77.15207053 126.25479852 -79 122.5 C-79.35513672 121.81357422 -79.71027344 121.12714844 -80.07617188 120.41992188 C-82.26340743 116.0329997 -83.36599683 112.2534101 -83.8125 107.3125 C-83.91691406 106.51328125 -84.02132813 105.7140625 -84.12890625 104.890625 C-85.60319487 90.9433866 -85.29002599 77.11069219 -82.8125 63.3125 C-82.66683594 62.25675781 -82.52117187 61.20101562 -82.37109375 60.11328125 C-81.8125 57.3125 -81.8125 57.3125 -79.8125 54.3125 C-79.1287955 52.98782254 -78.46285814 51.65386367 -77.8125 50.3125 C-77.461875 49.6525 -77.11125 48.9925 -76.75 48.3125 C-75.7494354 46.38492891 -75.7494354 46.38492891 -75.4375 44.4375 C-74.50995408 41.28384386 -72.74285689 38.94480486 -70.8125 36.3125 C-69.8225 35.8175 -69.8225 35.8175 -68.8125 35.3125 C-68.4825 34.3225 -68.1525 33.3325 -67.8125 32.3125 C-67.1525 31.9825 -66.4925 31.6525 -65.8125 31.3125 C-65.544375 30.69375 -65.27625 30.075 -65 29.4375 C-63.44904797 26.66211215 -61.52804678 25.90208836 -58.8125 24.3125 C-57.15681807 22.36116059 -55.95396298 20.59542596 -54.8125 18.3125 C-54.26207031 18.19261719 -53.71164062 18.07273437 -53.14453125 17.94921875 C-49.82191224 17.04203802 -47.30089074 15.0566623 -44.5 13.125 C-30.69647883 3.93913109 -16.52086502 -0.04794215 0 0 Z M67.1875 42.3125 C68.1875 44.3125 68.1875 44.3125 68.1875 44.3125 Z M68.1875 45.3125 C69.1875 47.3125 69.1875 47.3125 69.1875 47.3125 Z M-80.8125 57.3125 C-79.8125 59.3125 -79.8125 59.3125 -79.8125 59.3125 Z M-81.8125 60.3125 C-80.8125 62.3125 -80.8125 62.3125 -80.8125 62.3125 Z M-82.8125 107.3125 C-81.8125 110.3125 -81.8125 110.3125 -81.8125 110.3125 Z M-81.8125 111.3125 C-80.8125 113.3125 -80.8125 113.3125 -80.8125 113.3125 Z M-80.8125 114.3125 C-79.8125 116.3125 -79.8125 116.3125 -79.8125 116.3125 Z M-79.8125 116.3125 C-78.8125 118.3125 -78.8125 118.3125 -78.8125 118.3125 Z " fill="#3F3F3F" transform="translate(430.8125,-0.3125)"/>
<path d="M0 0 C0.59941406 0.67675781 1.19882812 1.35351562 1.81640625 2.05078125 C3.44414761 3.94054821 3.44414761 3.94054821 6.4375 4.6875 C13.30385146 13.13965168 12.95550594 21.6042924 12 31.87890625 C11.37163016 37.52649081 10.59212753 43.12183446 9.4375 48.6875 C9.25960937 49.89212891 9.25960937 49.89212891 9.078125 51.12109375 C8.26573421 54.37561053 6.86131853 56.90878872 5.1875 59.8125 C4.60484375 60.84632812 4.0221875 61.88015625 3.421875 62.9453125 C1.29192479 65.88866889 -0.41168108 66.97151554 -3.5625 68.6875 C-5.04860341 69.9898097 -6.50710614 71.32423653 -7.9375 72.6875 C-14.82666987 78.91402998 -21.8830735 81.07689745 -31.234375 80.8984375 C-43.24469661 79.810254 -53.04697798 75.0573562 -61.08984375 66.10546875 C-62.61892119 64.4296846 -62.61892119 64.4296846 -65.5625 63.6875 C-69.58914023 58.12126204 -70.33012985 53.45411866 -70.5625 46.6875 C-70.62566406 45.6459375 -70.68882812 44.604375 -70.75390625 43.53125 C-71.10302365 33.71091553 -69.02504826 25.09265418 -66.5625 15.6875 C-66.21333327 14.02407838 -65.87199223 12.35875804 -65.5625 10.6875 C-64.5725 10.3575 -63.5825 10.0275 -62.5625 9.6875 C-62.48 8.945 -62.3975 8.2025 -62.3125 7.4375 C-61.38023288 4.01918723 -60.23129819 3.00514053 -57.5625 0.6875 C-57.10101563 0.23503906 -56.63953125 -0.21742187 -56.1640625 -0.68359375 C-50.06197021 -6.41360724 -41.37505569 -11.96563508 -32.8046875 -12.41015625 C-20.13609063 -11.85838809 -9.13203882 -9.26511042 0 0 Z M8.4375 11.6875 C9.4375 13.6875 9.4375 13.6875 9.4375 13.6875 Z M9.4375 14.6875 C10.4375 16.6875 10.4375 16.6875 10.4375 16.6875 Z M10.4375 17.6875 C11.4375 21.6875 11.4375 21.6875 11.4375 21.6875 Z M7.4375 48.6875 C8.4375 50.6875 8.4375 50.6875 8.4375 50.6875 Z M6.4375 51.6875 C7.4375 53.6875 7.4375 53.6875 7.4375 53.6875 Z M-68.5625 54.6875 C-67.5625 56.6875 -67.5625 56.6875 -67.5625 56.6875 Z " fill="#3F3F3F" transform="translate(310.5625,21.3125)"/>
<path d="M0 0 C3.19613996 1.76543542 6.22655539 3.70435854 9.20703125 5.8125 C11.33349084 7.35062414 11.33349084 7.35062414 13.8671875 8.65625 C16.68985589 10.5275078 17.91611566 12.2467988 19.625 15.15234375 C20.13675781 15.99539062 20.64851563 16.8384375 21.17578125 17.70703125 C22.39554304 20.46511804 22.5421149 22.29768998 22.3125 25.27734375 C22.9725 25.27734375 23.6325 25.27734375 24.3125 25.27734375 C25.59036205 33.0853827 25.42408147 40.89097056 25.375 48.77734375 C25.36997533 50.18619633 25.36541413 51.59505064 25.36132812 53.00390625 C25.3496003 56.42843013 25.33318691 59.85286422 25.3125 63.27734375 C24.6525 63.27734375 23.9925 63.27734375 23.3125 63.27734375 C23.02375 64.32921875 22.735 65.38109375 22.4375 66.46484375 C19.94235461 74.92061423 19.94235461 74.92061423 14.3125 78.27734375 C12.82639659 79.57965345 11.36789386 80.91408028 9.9375 82.27734375 C3.91798859 87.72690142 -1.77399608 89.89197089 -9.875 90.52734375 C-22.05515033 89.72864537 -31.95288032 83.45145308 -40.6875 75.27734375 C-41.43 74.61734375 -42.1725 73.95734375 -42.9375 73.27734375 C-47.13592569 68.47914296 -48.06680905 63.91775734 -48.4765625 57.7421875 C-48.62590791 55.30247268 -48.62590791 55.30247268 -49.203125 53.0703125 C-50.49104161 45.64401917 -49.81917302 37.79045115 -49.6875 30.27734375 C-49.67074219 29.13007812 -49.65398437 27.9828125 -49.63671875 26.80078125 C-49.33600186 20.70052427 -47.93011453 15.8401556 -43.6875 11.27734375 C-42.36002329 10.59909024 -41.02643925 9.9326787 -39.6875 9.27734375 C-38.56458007 8.19185449 -37.48201257 7.06347665 -36.4375 5.90234375 C-26.94157996 -3.92102181 -12.27300745 -5.67222877 0 0 Z M-47.6875 20.27734375 C-46.6875 22.27734375 -46.6875 22.27734375 -46.6875 22.27734375 Z M23.3125 29.27734375 C24.3125 32.27734375 24.3125 32.27734375 24.3125 32.27734375 Z M-46.6875 62.27734375 C-45.6875 64.27734375 -45.6875 64.27734375 -45.6875 64.27734375 Z " fill="#3F3F3F" transform="translate(198.6875,11.72265625)"/>
<path d="M0 0 C1.96662568 1.44966342 3.86002371 2.95643658 5.75 4.50390625 C6.7709375 5.26380859 6.7709375 5.26380859 7.8125 6.0390625 C12.12230624 9.29748456 15.10495748 12.31569523 16.75 17.50390625 C17.12125 18.59703125 17.4925 19.69015625 17.875 20.81640625 C18.16375 21.70328125 18.4525 22.59015625 18.75 23.50390625 C19.41 23.50390625 20.07 23.50390625 20.75 23.50390625 C23.36823715 28.3778554 22.83971703 32.91323858 22.5 38.25390625 C22.46003906 39.10984375 22.42007813 39.96578125 22.37890625 40.84765625 C21.55937146 55.46638497 21.55937146 55.46638497 18.27075195 59.16967773 C17.76890381 59.60997314 17.26705566 60.05026855 16.75 60.50390625 C16.26402344 60.96410156 15.77804688 61.42429687 15.27734375 61.8984375 C5.3233554 70.776319 -3.96140588 75.03480273 -17.296875 74.75 C-28.19487802 73.84183308 -36.19976638 67.3760569 -44.25 60.50390625 C-44.91 60.17390625 -45.57 59.84390625 -46.25 59.50390625 C-46.58 58.51390625 -46.91 57.52390625 -47.25 56.50390625 C-47.930625 55.82328125 -47.930625 55.82328125 -48.625 55.12890625 C-53.06213129 50.69177496 -53.739747 46.52489162 -54.25 40.50390625 C-54.91 40.50390625 -55.57 40.50390625 -56.25 40.50390625 C-56.36693501 36.64999808 -56.4374962 32.79655113 -56.5 28.94140625 C-56.55027344 27.31235352 -56.55027344 27.31235352 -56.6015625 25.65039062 C-56.68211421 19.02501271 -56.29804457 14.84882436 -52.25 9.50390625 C-51.59 9.17390625 -50.93 8.84390625 -50.25 8.50390625 C-49.92 7.51390625 -49.59 6.52390625 -49.25 5.50390625 C-47.4453125 4.5 -47.4453125 4.5 -45.25 3.50390625 C-43.86611363 2.5373397 -42.49157411 1.55729855 -41.125 0.56640625 C-28.62754903 -7.74490667 -12.63257187 -8.39978303 0 0 Z M-54.25 14.50390625 C-53.25 16.50390625 -53.25 16.50390625 -53.25 16.50390625 Z M-55.25 17.50390625 C-54.25 19.50390625 -54.25 19.50390625 -54.25 19.50390625 Z M19.75 26.50390625 C20.75 28.50390625 20.75 28.50390625 20.75 28.50390625 Z M20.75 29.50390625 C21.75 32.50390625 21.75 32.50390625 21.75 32.50390625 Z " fill="#3F3F3F" transform="translate(118.25,51.49609375)"/>
<path d="M0 0 C0.69867188 0.41378906 1.39734375 0.82757813 2.1171875 1.25390625 C4.1213064 2.46870801 4.1213064 2.46870801 6.27734375 3.5 C9.6505188 5.21154759 10.93097551 6.85542652 12.125 10.4375 C12.785 11.035625 13.445 11.63375 14.125 12.25 C16.58616528 14.94189953 16.80019632 16.86465954 17.125 20.4375 C17.785 20.4375 18.445 20.4375 19.125 20.4375 C20.03188882 25.065512 20.28355893 29.54839432 20.25 34.25 C20.24516602 34.95560059 20.24033203 35.66120117 20.23535156 36.38818359 C20.05981077 51.65672167 20.05981077 51.65672167 15.125 57.4375 C12.9375 58.625 12.9375 58.625 11.125 59.4375 C10.63 60.9225 10.63 60.9225 10.125 62.4375 C9.485625 62.540625 8.84625 62.64375 8.1875 62.75 C5.58792858 63.33357726 3.30336424 64.08639582 0.8125 65 C-7.22249635 67.69159119 -14.15707687 66.62533782 -21.875 63.4375 C-27.52285748 60.39208665 -32.05082564 56.5784444 -36.3671875 51.85546875 C-37.93167459 50.18552507 -37.93167459 50.18552507 -40.875 49.4375 C-46.67194112 42.99345847 -46.65267905 35.10600625 -46.52685547 26.8984375 C-46.49994295 24.8080685 -46.52674573 22.72302252 -46.55859375 20.6328125 C-46.58734449 9.55320345 -46.58734449 9.55320345 -43.5234375 5.0390625 C-40.875 2.4375 -40.875 2.4375 -37.875 1.4375 C-37.545 0.4475 -37.215 -0.5425 -36.875 -1.5625 C-35.9159375 -1.7171875 -35.9159375 -1.7171875 -34.9375 -1.875 C-32.33792858 -2.45857726 -30.05336424 -3.21139582 -27.5625 -4.125 C-17.70608244 -7.42673724 -8.86453487 -4.91988963 0 0 Z M-44.875 10.4375 C-43.875 12.4375 -43.875 12.4375 -43.875 12.4375 Z M18.125 23.4375 C19.125 26.4375 19.125 26.4375 19.125 26.4375 Z M-44.875 37.4375 C-43.875 39.4375 -43.875 39.4375 -43.875 39.4375 Z " fill="#3F3F3F" transform="translate(45.875,111.5625)"/>
<path d="M0 0 C12.21 0 24.42 0 37 0 C37 0.33 37 0.66 37 1 C24.79 1 12.58 1 0 1 C0 0.67 0 0.34 0 0 Z " fill="#444444" transform="translate(207,111)"/>
<path d="M0 0 C0.33 0 0.66 0 1 0 C1 11.22 1 22.44 1 34 C0.67 34 0.34 34 0 34 C0 22.78 0 11.56 0 0 Z " fill="#404040" transform="translate(20,311)"/>
<path d="M0 0 C0.33 0 0.66 0 1 0 C1 8.91 1 17.82 1 27 C0.67 27 0.34 27 0 27 C0 18.09 0 9.18 0 0 Z " fill="#464646" transform="translate(384,238)"/>
<path d="M0 0 C7.59 0 15.18 0 23 0 C23 0.33 23 0.66 23 1 C15.41 1 7.82 1 0 1 C0 0.67 0 0.34 0 0 Z " fill="#494949" transform="translate(408,163)"/>
<path d="M0 0 C0.33 0 0.66 0 1 0 C1 6.6 1 13.2 1 20 C0.67 20 0.34 20 0 20 C0 13.4 0 6.8 0 0 Z " fill="#424242" transform="translate(147,42)"/>
<path d="M0 0 C0.33 0 0.66 0 1 0 C1 6.27 1 12.54 1 19 C0.67 19 0.34 19 0 19 C0 12.73 0 6.46 0 0 Z " fill="#3F3F3F" transform="translate(344,77)"/>
<path d="M0 0 C0.33 0 0.66 0 1 0 C1 5.28 1 10.56 1 16 C0.67 16 0.34 16 0 16 C0 10.72 0 5.44 0 0 Z " fill="#373737" transform="translate(278,576)"/>
<path d="M0 0 C0.33 0 0.66 0 1 0 C1 5.28 1 10.56 1 16 C0.67 16 0.34 16 0 16 C0 10.72 0 5.44 0 0 Z " fill="#444444" transform="translate(141,84)"/>
<path d="M0 0 C0.33 0 0.66 0 1 0 C1 4.95 1 9.9 1 15 C0.67 15 0.34 15 0 15 C0 10.05 0 5.1 0 0 Z " fill="#3E3E3E" transform="translate(21,346)"/>
<path d="M0 0 C0.33 0 0.66 0 1 0 C1 4.95 1 9.9 1 15 C0.67 15 0.34 15 0 15 C0 10.05 0 5.1 0 0 Z " fill="#464646" transform="translate(225,51)"/>
<path d="M0 0 C0.33 0 0.66 0 1 0 C1 4.95 1 9.9 1 15 C0.67 15 0.34 15 0 15 C0 10.05 0 5.1 0 0 Z " fill="#3B3B3B" transform="translate(323,43)"/>
<path d="M0 0 C0.33 0 0.66 0 1 0 C1 4.62 1 9.24 1 14 C0.67 14 0.34 14 0 14 C0 9.38 0 4.76 0 0 Z " fill="#3F3F3F" transform="translate(238,54)"/>
<path d="M0 0 C4.62 0 9.24 0 14 0 C14 0.33 14 0.66 14 1 C9.38 1 4.76 1 0 1 C0 0.67 0 0.34 0 0 Z " fill="#3D3D3D" transform="translate(92,44)"/>
<path d="M0 0 C4.62 0 9.24 0 14 0 C14 0.33 14 0.66 14 1 C9.38 1 4.76 1 0 1 C0 0.67 0 0.34 0 0 Z " fill="#515151" transform="translate(177,7)"/>
<path d="M0 0 C0.33 0 0.66 0 1 0 C1 3.96 1 7.92 1 12 C0.67 12 0.34 12 0 12 C0 8.04 0 4.08 0 0 Z " fill="#3F3F3F" transform="translate(21,298)"/>
<path d="M0 0 C0.33 0 0.66 0 1 0 C1 3.96 1 7.92 1 12 C0.67 12 0.34 12 0 12 C0 8.04 0 4.08 0 0 Z " fill="#343434" transform="translate(67,142)"/>
<path d="M0 0 C3.96 0 7.92 0 12 0 C12 0.33 12 0.66 12 1 C8.04 1 4.08 1 0 1 C0 0.67 0 0.34 0 0 Z " fill="#3D3D3D" transform="translate(98,127)"/>
<path d="M0 0 C0.33 0 0.66 0 1 0 C1 3.63 1 7.26 1 11 C0.67 11 0.34 11 0 11 C0 7.37 0 3.74 0 0 Z " fill="#3D3D3D" transform="translate(22,362)"/>
<path d="M0 0 C2.62187494 1.04874998 3.79371361 1.64931313 5.25 4.125 C5.4975 4.74375 5.745 5.3625 6 6 C3.97945196 4.35830472 1.97956942 2.69088222 0 1 C0 0.67 0 0.34 0 0 Z " fill="#2D2D2D" transform="translate(341,149)"/>
<path d="M0 0 C0.33 0 0.66 0 1 0 C1 3.3 1 6.6 1 10 C0.67 10 0.34 10 0 10 C0 6.7 0 3.4 0 0 Z " fill="#595959" transform="translate(212,419)"/>
<path d="M0 0 C3.3 0 6.6 0 10 0 C10 0.33 10 0.66 10 1 C6.7 1 3.4 1 0 1 C0 0.67 0 0.34 0 0 Z " fill="#343434" transform="translate(197,112)"/>
<path d="M0 0 C0.33 0 0.66 0 1 0 C1 2.97 1 5.94 1 9 C0.67 9 0.34 9 0 9 C0 6.03 0 3.06 0 0 Z " fill="#282828" transform="translate(213,429)"/>
<path d="M0 0 C0.33 0 0.66 0 1 0 C1 2.97 1 5.94 1 9 C0.67 9 0.34 9 0 9 C0 6.03 0 3.06 0 0 Z " fill="#3A3A3A" transform="translate(213,410)"/>
<path d="M0 0 C0.33 0 0.66 0 1 0 C1 2.97 1 5.94 1 9 C0.67 9 0.34 9 0 9 C0 6.03 0 3.06 0 0 Z " fill="#434343" transform="translate(23,373)"/>
<path d="M0 0 C1.65 1.65 3.3 3.3 5 5 C3.0625 4.1875 3.0625 4.1875 1 3 C0.67 2.01 0.34 1.02 0 0 Z " fill="#323232" transform="translate(9,164)"/>
<path d="M0 0 C2.97 0 5.94 0 9 0 C9 0.33 9 0.66 9 1 C6.03 1 3.06 1 0 1 C0 0.67 0 0.34 0 0 Z " fill="#4B4B4B" transform="translate(245,112)"/>
<path d="M0 0 C2.97 0 5.94 0 9 0 C9 0.33 9 0.66 9 1 C6.03 1 3.06 1 0 1 C0 0.67 0 0.34 0 0 Z " fill="#000000" transform="translate(277,103)"/>
<path d="M0 0 C0 0.99 0 1.98 0 3 C-1.98 3.99 -1.98 3.99 -4 5 C-2.68 3.35 -1.36 1.7 0 0 Z " fill="#323232" transform="translate(308,89)"/>
<path d="M0 0 C0 0.99 0 1.98 0 3 C-1.98 3.99 -1.98 3.99 -4 5 C-2.68 3.35 -1.36 1.7 0 0 Z " fill="#2F2F2F" transform="translate(214,89)"/>
<path d="M0 0 C1.65 1.65 3.3 3.3 5 5 C3.0625 4.1875 3.0625 4.1875 1 3 C0.67 2.01 0.34 1.02 0 0 Z " fill="#353535" transform="translate(159,88)"/>
<path d="M0 0 C1.65 1.65 3.3 3.3 5 5 C3.0625 4.1875 3.0625 4.1875 1 3 C0.67 2.01 0.34 1.02 0 0 Z " fill="#383838" transform="translate(248,87)"/>
<path d="M0 0 C0.66 0.33 1.32 0.66 2 1 C0.35 2.32 -1.3 3.64 -3 5 C-1.125 1.125 -1.125 1.125 0 0 Z " fill="#414141" transform="translate(161,16)"/>
<path d="M0 0 C0.33 0 0.66 0 1 0 C1 2.64 1 5.28 1 8 C0.67 8 0.34 8 0 8 C0 5.36 0 2.72 0 0 Z " fill="#3E3E3E" transform="translate(24,382)"/>
<path d="M0 0 C2.64 0 5.28 0 8 0 C8 0.33 8 0.66 8 1 C5.36 1 2.72 1 0 1 C0 0.67 0 0.34 0 0 Z " fill="#2A2A2A" transform="translate(307,338)"/>
<path d="M0 0 C0.33 0 0.66 0 1 0 C1 2.64 1 5.28 1 8 C0.67 8 0.34 8 0 8 C0 5.36 0 2.72 0 0 Z " fill="#3E3E3E" transform="translate(383,230)"/>
<path d="M0 0 C2.64 0 5.28 0 8 0 C8 0.33 8 0.66 8 1 C5.36 1 2.72 1 0 1 C0 0.67 0 0.34 0 0 Z " fill="#282828" transform="translate(34,179)"/>
<path d="M0 0 C2.64 0 5.28 0 8 0 C8 0.33 8 0.66 8 1 C5.36 1 2.72 1 0 1 C0 0.67 0 0.34 0 0 Z " fill="#000000" transform="translate(23,104)"/>
<path d="M0 0 C0.33 0 0.66 0 1 0 C1 2.31 1 4.62 1 7 C0.67 7 0.34 7 0 7 C0 4.69 0 2.38 0 0 Z " fill="#383838" transform="translate(26,397)"/>
<path d="M0 0 C0.33 0 0.66 0 1 0 C1 2.31 1 4.62 1 7 C0.67 7 0.34 7 0 7 C0 4.69 0 2.38 0 0 Z " fill="#4F4F4F" transform="translate(25,390)"/>
<path d="M0 0 C2.31 0 4.62 0 7 0 C7 0.33 7 0.66 7 1 C4.69 1 2.38 1 0 1 C0 0.67 0 0.34 0 0 Z " fill="#343434" transform="translate(315,337)"/>
<path d="M0 0 C0.33 0 0.66 0 1 0 C1 2.31 1 4.62 1 7 C0.67 7 0.34 7 0 7 C0 4.69 0 2.38 0 0 Z " fill="#474747" transform="translate(22,291)"/>
<path d="M0 0 C0.33 0 0.66 0 1 0 C1 2.31 1 4.62 1 7 C0.67 7 0.34 7 0 7 C0 4.69 0 2.38 0 0 Z " fill="#383838" transform="translate(23,284)"/>
<path d="M0 0 C0.33 0 0.66 0 1 0 C1 2.31 1 4.62 1 7 C0.67 7 0.34 7 0 7 C0 4.69 0 2.38 0 0 Z " fill="#303030" transform="translate(383,265)"/>
<path d="M0 0 C2.31 0 4.62 0 7 0 C7 0.33 7 0.66 7 1 C4.69 1 2.38 1 0 1 C0 0.67 0 0.34 0 0 Z " fill="#303030" transform="translate(254,113)"/>
<path d="M0 0 C2.31 0 4.62 0 7 0 C7 0.33 7 0.66 7 1 C4.69 1 2.38 1 0 1 C0 0.67 0 0.34 0 0 Z " fill="#464646" transform="translate(190,113)"/>
<path d="M0 0 C2.31 0 4.62 0 7 0 C7 0.33 7 0.66 7 1 C4.69 1 2.38 1 0 1 C0 0.67 0 0.34 0 0 Z " fill="#000000" transform="translate(185,103)"/>
<path d="M0 0 C2.31 0 4.62 0 7 0 C7 0.33 7 0.66 7 1 C4.69 1 2.38 1 0 1 C0 0.67 0 0.34 0 0 Z " fill="#474747" transform="translate(283,8)"/>
<path d="M0 0 C2.31 0 4.62 0 7 0 C7 0.33 7 0.66 7 1 C4.69 1 2.38 1 0 1 C0 0.67 0 0.34 0 0 Z " fill="#474747" transform="translate(272,8)"/>
<path d="M0 0 C0.33 0 0.66 0 1 0 C1 1.98 1 3.96 1 6 C0.67 6 0.34 6 0 6 C0 4.02 0 2.04 0 0 Z " fill="#2C2C2C" transform="translate(30,421)"/>
<path d="M0 0 C0.33 0 0.66 0 1 0 C1 1.98 1 3.96 1 6 C0.67 6 0.34 6 0 6 C0 4.02 0 2.04 0 0 Z " fill="#464646" transform="translate(28,410)"/>
<path d="M0 0 C0.33 0 0.66 0 1 0 C1 1.98 1 3.96 1 6 C0.67 6 0.34 6 0 6 C0 4.02 0 2.04 0 0 Z " fill="#3C3C3C" transform="translate(27,404)"/>
<path d="M0 0 C1.98 0 3.96 0 6 0 C6 0.33 6 0.66 6 1 C4.02 1 2.04 1 0 1 C0 0.67 0 0.34 0 0 Z " fill="#2C2C2C" transform="translate(301,339)"/>
<path d="M0 0 C0.33 0 0.66 0 1 0 C1 1.98 1 3.96 1 6 C0.67 6 0.34 6 0 6 C0 4.02 0 2.04 0 0 Z " fill="#3D3D3D" transform="translate(24,278)"/>
<path d="M0 0 C1.98 0 3.96 0 6 0 C6 0.33 6 0.66 6 1 C4.02 1 2.04 1 0 1 C0 0.67 0 0.34 0 0 Z " fill="#2C2C2C" transform="translate(261,114)"/>
<path d="M0 0 C1.98 0 3.96 0 6 0 C6 0.33 6 0.66 6 1 C4.02 1 2.04 1 0 1 C0 0.67 0 0.34 0 0 Z " fill="#464646" transform="translate(184,114)"/>
<path d="M0 0 C0.33 0 0.66 0 1 0 C1 1.98 1 3.96 1 6 C0.67 6 0.34 6 0 6 C0 4.02 0 2.04 0 0 Z " fill="#3D3D3D" transform="translate(345,97)"/>
<path d="M0 0 C0.33 0 0.66 0 1 0 C1 1.98 1 3.96 1 6 C0.67 6 0.34 6 0 6 C0 4.02 0 2.04 0 0 Z " fill="#3D3D3D" transform="translate(61,82)"/>
<path d="M0 0 C0.33 0 0.66 0 1 0 C1 1.98 1 3.96 1 6 C0.67 6 0.34 6 0 6 C0 4.02 0 2.04 0 0 Z " fill="#414141" transform="translate(345,71)"/>
<path d="M0 0 C0.33 0 0.66 0 1 0 C1 1.98 1 3.96 1 6 C0.67 6 0.34 6 0 6 C0 4.02 0 2.04 0 0 Z " fill="#464646" transform="translate(61,71)"/>
<path d="M0 0 C0.33 0 0.66 0 1 0 C1 1.98 1 3.96 1 6 C0.67 6 0.34 6 0 6 C0 4.02 0 2.04 0 0 Z " fill="#3D3D3D" transform="translate(224,45)"/>
<path d="M0 0 C1.65 0 3.3 0 5 0 C5 0.33 5 0.66 5 1 C3.35 1 1.7 1 0 1 C0 0.67 0 0.34 0 0 Z " fill="#434343" transform="translate(170,639)"/>
<path d="M0 0 C1.65 0 3.3 0 5 0 C5 0.33 5 0.66 5 1 C3.35 1 1.7 1 0 1 C0 0.67 0 0.34 0 0 Z " fill="#454545" transform="translate(165,638)"/>
<path d="M0 0 C0 0.99 0 1.98 0 3 C-0.66 2.67 -1.32 2.34 -2 2 C-1.34 1.34 -0.68 0.68 0 0 Z " fill="#323232" transform="translate(264,619)"/>
<path d="M0 0 C0.33 0 0.66 0 1 0 C1 1.65 1 3.3 1 5 C0.67 5 0.34 5 0 5 C0 3.35 0 1.7 0 0 Z " fill="#535353" transform="translate(277,592)"/>
<path d="M0 0 C0.33 0 0.66 0 1 0 C1 1.65 1 3.3 1 5 C0.67 5 0.34 5 0 5 C0 3.35 0 1.7 0 0 Z " fill="#343434" transform="translate(277,571)"/>
<path d="M0 0 C0.33 0 0.66 0 1 0 C1 1.65 1 3.3 1 5 C0.67 5 0.34 5 0 5 C0 3.35 0 1.7 0 0 Z " fill="#444444" transform="translate(34,441)"/>
<path d="M0 0 C0.33 0 0.66 0 1 0 C1 1.65 1 3.3 1 5 C0.67 5 0.34 5 0 5 C0 3.35 0 1.7 0 0 Z " fill="#252525" transform="translate(214,438)"/>
<path d="M0 0 C0.33 0 0.66 0 1 0 C1 1.65 1 3.3 1 5 C0.67 5 0.34 5 0 5 C0 3.35 0 1.7 0 0 Z " fill="#343434" transform="translate(31,427)"/>
<path d="M0 0 C0.33 0 0.66 0 1 0 C1 1.65 1 3.3 1 5 C0.67 5 0.34 5 0 5 C0 3.35 0 1.7 0 0 Z " fill="#535353" transform="translate(29,416)"/>
<path d="M0 0 C0.33 0 0.66 0 1 0 C1 1.65 1 3.3 1 5 C0.67 5 0.34 5 0 5 C0 3.35 0 1.7 0 0 Z " fill="#3A3A3A" transform="translate(214,405)"/>
<path d="M0 0 C1.65 0 3.3 0 5 0 C5 0.33 5 0.66 5 1 C3.35 1 1.7 1 0 1 C0 0.67 0 0.34 0 0 Z " fill="#252525" transform="translate(296,340)"/>
<path d="M0 0 C1.65 0 3.3 0 5 0 C5 0.33 5 0.66 5 1 C3.35 1 1.7 1 0 1 C0 0.67 0 0.34 0 0 Z " fill="#3F3F3F" transform="translate(322,336)"/>
<path d="M0 0 C0.33 0 0.66 0 1 0 C1 1.65 1 3.3 1 5 C0.67 5 0.34 5 0 5 C0 3.35 0 1.7 0 0 Z " fill="#535353" transform="translate(25,273)"/>
<path d="M0 0 C0.33 0 0.66 0 1 0 C1 1.65 1 3.3 1 5 C0.67 5 0.34 5 0 5 C0 3.35 0 1.7 0 0 Z " fill="#5E5E5E" transform="translate(382,272)"/>
<path d="M0 0 C0.33 0 0.66 0 1 0 C1 1.65 1 3.3 1 5 C0.67 5 0.34 5 0 5 C0 3.35 0 1.7 0 0 Z " fill="#545454" transform="translate(382,225)"/>
<path d="M0 0 C0.33 0 0.66 0 1 0 C1 1.65 1 3.3 1 5 C0.67 5 0.34 5 0 5 C0 3.35 0 1.7 0 0 Z " fill="#3F3F3F" transform="translate(381,220)"/>
<path d="M0 0 C1.65 0 3.3 0 5 0 C5 0.33 5 0.66 5 1 C3.35 1 1.7 1 0 1 C0 0.67 0 0.34 0 0 Z " fill="#3F3F3F" transform="translate(29,178)"/>
<path d="M0 0 C1.65 0 3.3 0 5 0 C5 0.33 5 0.66 5 1 C3.35 1 1.7 1 0 1 C0 0.67 0 0.34 0 0 Z " fill="#535353" transform="translate(431,162)"/>
<path d="M0 0 C1.65 0 3.3 0 5 0 C5 0.33 5 0.66 5 1 C3.35 1 1.7 1 0 1 C0 0.67 0 0.34 0 0 Z " fill="#343434" transform="translate(403,162)"/>
<path d="M0 0 C1.65 0 3.3 0 5 0 C5 0.33 5 0.66 5 1 C3.35 1 1.7 1 0 1 C0 0.67 0 0.34 0 0 Z " fill="#3F3F3F" transform="translate(93,126)"/>
<path d="M0 0 C1.65 0 3.3 0 5 0 C5 0.33 5 0.66 5 1 C3.35 1 1.7 1 0 1 C0 0.67 0 0.34 0 0 Z " fill="#444444" transform="translate(272,116)"/>
<path d="M0 0 C1.65 0 3.3 0 5 0 C5 0.33 5 0.66 5 1 C3.35 1 1.7 1 0 1 C0 0.67 0 0.34 0 0 Z " fill="#444444" transform="translate(174,116)"/>
<path d="M0 0 C1.65 0 3.3 0 5 0 C5 0.33 5 0.66 5 1 C3.35 1 1.7 1 0 1 C0 0.67 0 0.34 0 0 Z " fill="#5E5E5E" transform="translate(267,115)"/>
<path d="M0 0 C1.65 0 3.3 0 5 0 C5 0.33 5 0.66 5 1 C3.35 1 1.7 1 0 1 C0 0.67 0 0.34 0 0 Z " fill="#5E5E5E" transform="translate(179,115)"/>
<path d="M0 0 C1.65 0 3.3 0 5 0 C5 0.33 5 0.66 5 1 C3.35 1 1.7 1 0 1 C0 0.67 0 0.34 0 0 Z " fill="#5E5E5E" transform="translate(31,105)"/>
<path d="M0 0 C1.65 0 3.3 0 5 0 C5 0.33 5 0.66 5 1 C3.35 1 1.7 1 0 1 C0 0.67 0 0.34 0 0 Z " fill="#494949" transform="translate(286,102)"/>
<path d="M0 0 C1.65 0 3.3 0 5 0 C5 0.33 5 0.66 5 1 C3.35 1 1.7 1 0 1 C0 0.67 0 0.34 0 0 Z " fill="#494949" transform="translate(271,102)"/>
<path d="M0 0 C1.65 0 3.3 0 5 0 C5 0.33 5 0.66 5 1 C3.35 1 1.7 1 0 1 C0 0.67 0 0.34 0 0 Z " fill="#343434" transform="translate(192,102)"/>
<path d="M0 0 C1.65 0 3.3 0 5 0 C5 0.33 5 0.66 5 1 C3.35 1 1.7 1 0 1 C0 0.67 0 0.34 0 0 Z " fill="#343434" transform="translate(180,102)"/>
<path d="M0 0 C0.33 0 0.66 0 1 0 C1 1.65 1 3.3 1 5 C0.67 5 0.34 5 0 5 C0 3.35 0 1.7 0 0 Z " fill="#000000" transform="translate(60,77)"/>
<path d="M0 0 C0.33 0 0.66 0 1 0 C1 1.65 1 3.3 1 5 C0.67 5 0.34 5 0 5 C0 3.35 0 1.7 0 0 Z " fill="#3F3F3F" transform="translate(346,66)"/>
<path d="M0 0 C0.33 0 0.66 0 1 0 C1 1.65 1 3.3 1 5 C0.67 5 0.34 5 0 5 C0 3.35 0 1.7 0 0 Z " fill="#545454" transform="translate(224,66)"/>
<path d="M0 0 C0.33 0 0.66 0 1 0 C1 1.65 1 3.3 1 5 C0.67 5 0.34 5 0 5 C0 3.35 0 1.7 0 0 Z " fill="#343434" transform="translate(148,62)"/>
<path d="M0 0 C0.33 0 0.66 0 1 0 C1 1.65 1 3.3 1 5 C0.67 5 0.34 5 0 5 C0 3.35 0 1.7 0 0 Z " fill="#535353" transform="translate(322,58)"/>
<path d="M0 0 C0.33 0 0.66 0 1 0 C1 1.65 1 3.3 1 5 C0.67 5 0.34 5 0 5 C0 3.35 0 1.7 0 0 Z " fill="#545454" transform="translate(239,49)"/>
<path d="M0 0 C0.33 0 0.66 0 1 0 C1 1.65 1 3.3 1 5 C0.67 5 0.34 5 0 5 C0 3.35 0 1.7 0 0 Z " fill="#202020" transform="translate(148,37)"/>
<path d="M0 0 C4 1 4 1 4 1 Z " fill="#3A3A3A" transform="translate(228,639)"/>
<path d="M0 0 C4 1 4 1 4 1 Z " fill="#484848" transform="translate(161,637)"/>
<path d="M0 0 C4 1 4 1 4 1 Z " fill="#2E2E2E" transform="translate(157,636)"/>
<path d="M0 0 C4 1 4 1 4 1 Z " fill="#2E2E2E" transform="translate(153,635)"/>
<path d="M0 0 C1 4 1 4 1 4 Z " fill="#282828" transform="translate(276,567)"/>
<path d="M0 0 C1 4 1 4 1 4 Z " fill="#3C3C3C" transform="translate(42,473)"/>
<path d="M0 0 C1 4 1 4 1 4 Z " fill="#484848" transform="translate(39,462)"/>
<path d="M0 0 C1 4 1 4 1 4 Z " fill="#555555" transform="translate(38,458)"/>
<path d="M0 0 C1 4 1 4 1 4 Z " fill="#484848" transform="translate(37,454)"/>
<path d="M0 0 C1 4 1 4 1 4 Z " fill="#484848" transform="translate(36,450)"/>
<path d="M0 0 C1 4 1 4 1 4 Z " fill="#4F4F4F" transform="translate(35,446)"/>
<path d="M0 0 C1 4 1 4 1 4 Z " fill="#424242" transform="translate(32,432)"/>
<path d="M0 0 C1 4 1 4 1 4 Z " fill="#636363" transform="translate(215,401)"/>
<path d="M0 0 C4 1 4 1 4 1 Z " fill="#636363" transform="translate(284,343)"/>
<path d="M0 0 C4 1 4 1 4 1 Z " fill="#2E2E2E" transform="translate(288,342)"/>
<path d="M0 0 C4 1 4 1 4 1 Z " fill="#565656" transform="translate(292,341)"/>
<path d="M0 0 C4 1 4 1 4 1 Z " fill="#555555" transform="translate(327,335)"/>
<path d="M0 0 C0.66 0.33 1.32 0.66 2 1 C1.01 1 0.02 1 -1 1 C-0.67 0.67 -0.34 0.34 0 0 Z " fill="#1A1A1A" transform="translate(356,320)"/>
<path d="M0 0 C1 4 1 4 1 4 Z " fill="#484848" transform="translate(381,277)"/>
<path d="M0 0 C1 4 1 4 1 4 Z " fill="#484848" transform="translate(29,254)"/>
<path d="M0 0 C1 4 1 4 1 4 Z " fill="#2E2E2E" transform="translate(30,250)"/>
<path d="M0 0 C1 4 1 4 1 4 Z " fill="#2E2E2E" transform="translate(31,246)"/>
<path d="M0 0 C1 4 1 4 1 4 Z " fill="#2E2E2E" transform="translate(32,242)"/>
<path d="M0 0 C1 4 1 4 1 4 Z " fill="#484848" transform="translate(380,216)"/>
<path d="M0 0 C1 4 1 4 1 4 Z " fill="#555555" transform="translate(379,212)"/>
<path d="M0 0 C4 1 4 1 4 1 Z " fill="#494949" transform="translate(43,178)"/>
<path d="M0 0 C0.66 0.33 1.32 0.66 2 1 C1.01 1 0.02 1 -1 1 C-0.67 0.67 -0.34 0.34 0 0 Z " fill="#131313" transform="translate(81,162)"/>
<path d="M0 0 C4 1 4 1 4 1 Z " fill="#2E2E2E" transform="translate(436,161)"/>
<path d="M0 0 C4 1 4 1 4 1 Z " fill="#2E2E2E" transform="translate(399,161)"/>
<path d="M0 0 C4 1 4 1 4 1 Z " fill="#3C3C3C" transform="translate(440,160)"/>
<path d="M0 0 C1 4 1 4 1 4 Z " fill="#484848" transform="translate(66,154)"/>
<path d="M0 0 C0.99 0.33 1.98 0.66 3 1 C2.01 1 1.02 1 0 1 C0 0.67 0 0.34 0 0 Z " fill="#131313" transform="translate(371,146)"/>
<path d="M0 0 C1 4 1 4 1 4 Z " fill="#484848" transform="translate(66,138)"/>
<path d="M0 0 C4 1 4 1 4 1 Z " fill="#424242" transform="translate(111,126)"/>
<path d="M0 0 C4 1 4 1 4 1 Z " fill="#2E2E2E" transform="translate(284,119)"/>
<path d="M0 0 C4 1 4 1 4 1 Z " fill="#2E2E2E" transform="translate(163,119)"/>
<path d="M0 0 C4 1 4 1 4 1 Z " fill="#4F4F4F" transform="translate(277,117)"/>
<path d="M0 0 C4 1 4 1 4 1 Z " fill="#282828" transform="translate(170,117)"/>
<path d="M0 0 C4 1 4 1 4 1 Z " fill="#282828" transform="translate(19,105)"/>
<path d="M0 0 C1 4 1 4 1 4 Z " fill="#484848" transform="translate(346,103)"/>
<path d="M0 0 C1 4 1 4 1 4 Z " fill="#3A3A3A" transform="translate(503,93)"/>
<path d="M0 0 C1 4 1 4 1 4 Z " fill="#494949" transform="translate(239,68)"/>
<path d="M0 0 C1 4 1 4 1 4 Z " fill="#2E2E2E" transform="translate(149,67)"/>
<path d="M0 0 C1 4 1 4 1 4 Z " fill="#484848" transform="translate(321,63)"/>
<path d="M0 0 C1 4 1 4 1 4 Z " fill="#3A3A3A" transform="translate(503,53)"/>
<path d="M0 0 C1 4 1 4 1 4 Z " fill="#2E2E2E" transform="translate(240,45)"/>
<path d="M0 0 C4 1 4 1 4 1 Z " fill="#484848" transform="translate(106,45)"/>
<path d="M0 0 C4 1 4 1 4 1 Z " fill="#282828" transform="translate(88,45)"/>
<path d="M0 0 C4 1 4 1 4 1 Z " fill="#2E2E2E" transform="translate(290,9)"/>
<path d="M0 0 C4 1 4 1 4 1 Z " fill="#2E2E2E" transform="translate(191,8)"/>
<path d="M0 0 C4 1 4 1 4 1 Z " fill="#000000" transform="translate(279,7)"/>
<path d="M0 0 C4 1 4 1 4 1 Z " fill="#444444" transform="translate(449,0)"/>
<path d="M0 0 C4 1 4 1 4 1 Z " fill="#252525" transform="translate(409,0)"/>
<path d="M0 0 C3 1 3 1 3 1 Z " fill="#3D3D3D" transform="translate(232,638)"/>
<path d="M0 0 C3 1 3 1 3 1 Z " fill="#1B1B1B" transform="translate(235,637)"/>
<path d="M0 0 C3 1 3 1 3 1 Z " fill="#252525" transform="translate(238,636)"/>
<path d="M0 0 C3 1 3 1 3 1 Z " fill="#474747" transform="translate(150,634)"/>
<path d="M0 0 C3 1 3 1 3 1 Z " fill="#474747" transform="translate(147,633)"/>
<path d="" fill="#3D3D3D" transform="translate(0,0)"/>
<path d="" fill="#1B1B1B" transform="translate(0,0)"/>
<path d="" fill="#3D3D3D" transform="translate(0,0)"/>
<path d="" fill="#343434" transform="translate(0,0)"/>
<path d="" fill="#4D4D4D" transform="translate(0,0)"/>
<path d="" fill="#3D3D3D" transform="translate(0,0)"/>
<path d="" fill="#343434" transform="translate(0,0)"/>
<path d="" fill="#1B1B1B" transform="translate(0,0)"/>
<path d="M0 0 C3 1 3 1 3 1 Z " fill="#252525" transform="translate(262,351)"/>
<path d="M0 0 C3 1 3 1 3 1 Z " fill="#474747" transform="translate(272,347)"/>
<path d="M0 0 C3 1 3 1 3 1 Z " fill="#3D3D3D" transform="translate(275,346)"/>
<path d="M0 0 C3 1 3 1 3 1 Z " fill="#3D3D3D" transform="translate(278,345)"/>
<path d="M0 0 C3 1 3 1 3 1 Z " fill="#3D3D3D" transform="translate(281,344)"/>
<path d="M0 0 C3 1 3 1 3 1 Z " fill="#3D3D3D" transform="translate(331,334)"/>
<path d="" fill="#3D3D3D" transform="translate(0,0)"/>
<path d="" fill="#3D3D3D" transform="translate(0,0)"/>
<path d="" fill="#1B1B1B" transform="translate(0,0)"/>
<path d="" fill="#3D3D3D" transform="translate(0,0)"/>
<path d="M0 0 C3 1 3 1 3 1 Z " fill="#3D3D3D" transform="translate(26,177)"/>
<path d="M0 0 C3 1 3 1 3 1 Z " fill="#1B1B1B" transform="translate(396,160)"/>
<path d="M0 0 C3 1 3 1 3 1 Z " fill="#1B1B1B" transform="translate(393,159)"/>
<path d="" fill="#3D3D3D" transform="translate(0,0)"/>
<path d="M0 0 C3 1 3 1 3 1 Z " fill="#585858" transform="translate(390,158)"/>
<path d="M0 0 C3 1 3 1 3 1 Z " fill="#252525" transform="translate(451,156)"/>
<path d="M0 0 C3 1 3 1 3 1 Z " fill="#252525" transform="translate(134,130)"/>
<path d="M0 0 C3 1 3 1 3 1 Z " fill="#252525" transform="translate(309,128)"/>
<path d="M0 0 C3 1 3 1 3 1 Z " fill="#575757" transform="translate(141,127)"/>
<path d="M0 0 C3 1 3 1 3 1 Z " fill="#252525" transform="translate(302,125)"/>
<path d="M0 0 C3 1 3 1 3 1 Z " fill="#252525" transform="translate(146,125)"/>
<path d="M0 0 C3 1 3 1 3 1 Z " fill="#474747" transform="translate(115,125)"/>
<path d="M0 0 C3 1 3 1 3 1 Z " fill="#474747" transform="translate(297,123)"/>
<path d="M0 0 C3 1 3 1 3 1 Z " fill="#474747" transform="translate(151,123)"/>
<path d="M0 0 C3 1 3 1 3 1 Z " fill="#585858" transform="translate(294,122)"/>
<path d="M0 0 C3 1 3 1 3 1 Z " fill="#474747" transform="translate(154,122)"/>
<path d="M0 0 C3 1 3 1 3 1 Z " fill="#585858" transform="translate(291,121)"/>
<path d="M0 0 C3 1 3 1 3 1 Z " fill="#3D3D3D" transform="translate(157,121)"/>
<path d="M0 0 C3 1 3 1 3 1 Z " fill="#474747" transform="translate(288,120)"/>
<path d="M0 0 C3 1 3 1 3 1 Z " fill="#474747" transform="translate(160,120)"/>
<path d="M0 0 C3 1 3 1 3 1 Z " fill="#343434" transform="translate(281,118)"/>
<path d="M0 0 C3 1 3 1 3 1 Z " fill="#353535" transform="translate(167,118)"/>
<path d="M0 0 C0.33 0.66 0.66 1.32 1 2 C0.34 1.67 -0.32 1.34 -1 1 C-0.67 0.67 -0.34 0.34 0 0 Z " fill="#3B3B3B" transform="translate(132,114)"/>
<path d="M0 0 C3 1 3 1 3 1 Z " fill="#3D3D3D" transform="translate(36,106)"/>
<path d="" fill="#1B1B1B" transform="translate(0,0)"/>
<path d="" fill="#505050" transform="translate(0,0)"/>
<path d="M0 0 C3 1 3 1 3 1 Z " fill="#474747" transform="translate(291,101)"/>
<path d="M0 0 C3 1 3 1 3 1 Z " fill="#848484" transform="translate(268,101)"/>
<path d="M0 0 C3 1 3 1 3 1 Z " fill="#474747" transform="translate(197,101)"/>
<path d="M0 0 C3 1 3 1 3 1 Z " fill="#474747" transform="translate(177,101)"/>
<path d="" fill="#3D3D3D" transform="translate(0,0)"/>
<path d="" fill="#3D3D3D" transform="translate(0,0)"/>
<path d="" fill="#3D3D3D" transform="translate(0,0)"/>
<path d="" fill="#4F4F4F" transform="translate(0,0)"/>
<path d="" fill="#505050" transform="translate(0,0)"/>
<path d="" fill="#4F4F4F" transform="translate(0,0)"/>
<path d="" fill="#3D3D3D" transform="translate(0,0)"/>
<path d="" fill="#727272" transform="translate(0,0)"/>
<path d="" fill="#3D3D3D" transform="translate(0,0)"/>
<path d="" fill="#4F4F4F" transform="translate(0,0)"/>
<path d="M0 0 C3 1 3 1 3 1 Z " fill="#252525" transform="translate(82,47)"/>
<path d="M0 0 C3 1 3 1 3 1 Z " fill="#505050" transform="translate(85,46)"/>
<path d="" fill="#1B1B1B" transform="translate(0,0)"/>
<path d="" fill="#1B1B1B" transform="translate(0,0)"/>
<path d="" fill="#3D3D3D" transform="translate(0,0)"/>
<path d="M0 0 C0.66 0 1.32 0 2 0 C1.67 0.66 1.34 1.32 1 2 C0.67 1.34 0.34 0.68 0 0 Z " fill="#3B3B3B" transform="translate(311,21)"/>
<path d="M0 0 C0.66 0 1.32 0 2 0 C1.67 0.66 1.34 1.32 1 2 C0.67 1.34 0.34 0.68 0 0 Z " fill="#444444" transform="translate(309,19)"/>
<path d="M0 0 C3 1 3 1 3 1 Z " fill="#474747" transform="translate(294,10)"/>
<path d="M0 0 C3 1 3 1 3 1 Z " fill="#4F4F4F" transform="translate(269,9)"/>
<path d="M0 0 C3 1 3 1 3 1 Z " fill="#252525" transform="translate(171,9)"/>
<path d="M0 0 C3 1 3 1 3 1 Z " fill="#505050" transform="translate(174,8)"/>
<path d="M0 0 C3 1 3 1 3 1 Z " fill="#252525" transform="translate(458,3)"/>
<path d="M0 0 C3 1 3 1 3 1 Z " fill="#585858" transform="translate(403,2)"/>
<path d="M0 0 C3 1 3 1 3 1 Z " fill="#3D3D3D" transform="translate(453,1)"/>
<path d="M0 0 C3 1 3 1 3 1 Z " fill="#474747" transform="translate(406,1)"/>
<path d="M0 0 C2 1 2 1 2 1 Z " fill="#858585" transform="translate(241,635)"/>
<path d="M0 0 C2 1 2 1 2 1 Z " fill="#373737" transform="translate(243,634)"/>
<path d="M0 0 C2 1 2 1 2 1 Z " fill="#373737" transform="translate(245,633)"/>
<path d="M0 0 C2 1 2 1 2 1 Z " fill="#353535" transform="translate(247,632)"/>
<path d="M0 0 C2 1 2 1 2 1 Z " fill="#292929" transform="translate(145,632)"/>
<path d="M0 0 C2 1 2 1 2 1 Z " fill="#505050" transform="translate(249,631)"/>
<path d="M0 0 C2 1 2 1 2 1 Z " fill="#838383" transform="translate(143,631)"/>
<path d="M0 0 C2 1 2 1 2 1 Z " fill="#282828" transform="translate(251,630)"/>
<path d="M0 0 C2 1 2 1 2 1 Z " fill="#828282" transform="translate(141,630)"/>
<path d="M0 0 C2 1 2 1 2 1 Z " fill="#353535" transform="translate(139,629)"/>
<path d="M0 0 C2 1 2 1 2 1 Z " fill="#9C9C9C" transform="translate(137,628)"/>
<path d="M0 0 C2 1 2 1 2 1 Z " fill="#000000" transform="translate(255,627)"/>
<path d="M0 0 C2 1 2 1 2 1 Z " fill="#343434" transform="translate(135,627)"/>
<path d="M0 0 C2 1 2 1 2 1 Z " fill="#282828" transform="translate(133,626)"/>
<path d="M0 0 C2 1 2 1 2 1 Z " fill="#343434" transform="translate(130,624)"/>
<path d="M0 0 C2 1 2 1 2 1 Z " fill="#343434" transform="translate(127,622)"/>
<path d="M0 0 C2 1 2 1 2 1 Z " fill="#353535" transform="translate(123,619)"/>
<path d="" fill="#676767" transform="translate(0,0)"/>
<path d="" fill="#676767" transform="translate(0,0)"/>
<path d="" fill="#6A6A6A" transform="translate(0,0)"/>
<path d="" fill="#828282" transform="translate(0,0)"/>
<path d="" fill="#353535" transform="translate(0,0)"/>
<path d="" fill="#373737" transform="translate(0,0)"/>
<path d="" fill="#696969" transform="translate(0,0)"/>
<path d="" fill="#666666" transform="translate(0,0)"/>
<path d="" fill="#373737" transform="translate(0,0)"/>
<path d="" fill="#363636" transform="translate(0,0)"/>
<path d="" fill="#676767" transform="translate(0,0)"/>
<path d="" fill="#282828" transform="translate(0,0)"/>
<path d="" fill="#6A6A6A" transform="translate(0,0)"/>
<path d="" fill="#676767" transform="translate(0,0)"/>
<path d="" fill="#676767" transform="translate(0,0)"/>
<path d="" fill="#676767" transform="translate(0,0)"/>
<path d="" fill="#757575" transform="translate(0,0)"/>
<path d="M0 0 C2 1 2 1 2 1 Z " fill="#505050" transform="translate(243,362)"/>
<path d="M0 0 C2 1 2 1 2 1 Z " fill="#353535" transform="translate(246,360)"/>
<path d="M0 0 C2 1 2 1 2 1 Z " fill="#515151" transform="translate(249,358)"/>
<path d="M0 0 C2 1 2 1 2 1 Z " fill="#252525" transform="translate(251,357)"/>
<path d="M0 0 C2 1 2 1 2 1 Z " fill="#373737" transform="translate(256,354)"/>
<path d="M0 0 C2 1 2 1 2 1 Z " fill="#373737" transform="translate(258,353)"/>
<path d="M0 0 C2 1 2 1 2 1 Z " fill="#373737" transform="translate(260,352)"/>
<path d="M0 0 C2 1 2 1 2 1 Z " fill="#272727" transform="translate(265,350)"/>
<path d="M0 0 C2 1 2 1 2 1 Z " fill="#858585" transform="translate(267,349)"/>
<path d="M0 0 C2 1 2 1 2 1 Z " fill="#292929" transform="translate(270,348)"/>
<path d="M0 0 C2 1 2 1 2 1 Z " fill="#5C5C5C" transform="translate(334,333)"/>
<path d="M0 0 C2 1 2 1 2 1 Z " fill="#292929" transform="translate(337,332)"/>
<path d="M0 0 C2 1 2 1 2 1 Z " fill="#363636" transform="translate(339,331)"/>
<path d="M0 0 C2 1 2 1 2 1 Z " fill="#9E9E9E" transform="translate(341,330)"/>
<path d="M0 0 C2 1 2 1 2 1 Z " fill="#343434" transform="translate(343,329)"/>
<path d="M0 0 C2 1 2 1 2 1 Z " fill="#363636" transform="translate(345,328)"/>
<path d="M0 0 C2 1 2 1 2 1 Z " fill="#7F7F7F" transform="translate(348,326)"/>
<path d="M0 0 C2 1 2 1 2 1 Z " fill="#505050" transform="translate(351,324)"/>
<path d="" fill="#6A6A6A" transform="translate(0,0)"/>
<path d="" fill="#676767" transform="translate(0,0)"/>
<path d="" fill="#686868" transform="translate(0,0)"/>
<path d="" fill="#696969" transform="translate(0,0)"/>
<path d="" fill="#363636" transform="translate(0,0)"/>
<path d="M0 0 C2 1 2 1 2 1 Z " fill="#777777" transform="translate(47,177)"/>
<path d="M0 0 C2 1 2 1 2 1 Z " fill="#373737" transform="translate(49,176)"/>
<path d="M0 0 C2 1 2 1 2 1 Z " fill="#292929" transform="translate(24,176)"/>
<path d="M0 0 C2 1 2 1 2 1 Z " fill="#515151" transform="translate(51,175)"/>
<path d="M0 0 C2 1 2 1 2 1 Z " fill="#363636" transform="translate(22,175)"/>
<path d="M0 0 C2 1 2 1 2 1 Z " fill="#363636" transform="translate(20,174)"/>
<path d="M0 0 C2 1 2 1 2 1 Z " fill="#343434" transform="translate(17,172)"/>
<path d="M0 0 C2 1 2 1 2 1 Z " fill="#787878" transform="translate(444,159)"/>
<path d="M0 0 C2 1 2 1 2 1 Z " fill="#292929" transform="translate(447,158)"/>
<path d="M0 0 C2 1 2 1 2 1 Z " fill="#353535" transform="translate(86,158)"/>
<path d="M0 0 C2 1 2 1 2 1 Z " fill="#6A6A6A" transform="translate(449,157)"/>
<path d="M0 0 C2 1 2 1 2 1 Z " fill="#292929" transform="translate(388,157)"/>
<path d="M0 0 C2 1 2 1 2 1 Z " fill="#282828" transform="translate(386,156)"/>
<path d="M0 0 C2 1 2 1 2 1 Z " fill="#363636" transform="translate(454,155)"/>
<path d="M0 0 C2 1 2 1 2 1 Z " fill="#282828" transform="translate(384,155)"/>
<path d="M0 0 C2 1 2 1 2 1 Z " fill="#353535" transform="translate(90,155)"/>
<path d="M0 0 C2 1 2 1 2 1 Z " fill="#363636" transform="translate(456,154)"/>
<path d="M0 0 C2 1 2 1 2 1 Z " fill="#363636" transform="translate(381,153)"/>
<path d="M0 0 C2 1 2 1 2 1 Z " fill="#515151" transform="translate(459,152)"/>
<path d="M0 0 C2 1 2 1 2 1 Z " fill="#343434" transform="translate(379,152)"/>
<path d="M0 0 C2 1 2 1 2 1 Z " fill="#343434" transform="translate(461,151)"/>
<path d="M0 0 C2 1 2 1 2 1 Z " fill="#343434" transform="translate(376,150)"/>
<path d="M0 0 C2 1 2 1 2 1 Z " fill="#252525" transform="translate(97,150)"/>
<path d="M0 0 C2 1 2 1 2 1 Z " fill="#343434" transform="translate(464,149)"/>
<path d="M0 0 C2 1 2 1 2 1 Z " fill="#343434" transform="translate(467,147)"/>
<path d="M0 0 C2 1 2 1 2 1 Z " fill="#000000" transform="translate(102,147)"/>
<path d="M0 0 C2 1 2 1 2 1 Z " fill="#343434" transform="translate(105,145)"/>
<path d="M0 0 C2 1 2 1 2 1 Z " fill="#515151" transform="translate(107,144)"/>
<path d="M0 0 C2 1 2 1 2 1 Z " fill="#282828" transform="translate(110,142)"/>
<path d="M0 0 C2 1 2 1 2 1 Z " fill="#363636" transform="translate(112,141)"/>
<path d="M0 0 C2 1 2 1 2 1 Z " fill="#343434" transform="translate(114,140)"/>
<path d="M0 0 C2 1 2 1 2 1 Z " fill="#343434" transform="translate(329,139)"/>
<path d="M0 0 C2 1 2 1 2 1 Z " fill="#9C9C9C" transform="translate(116,139)"/>
<path d="M0 0 C2 1 2 1 2 1 Z " fill="#505050" transform="translate(118,138)"/>
<path d="M0 0 C2 1 2 1 2 1 Z " fill="#343434" transform="translate(326,137)"/>
<path d="M0 0 C2 1 2 1 2 1 Z " fill="#373737" transform="translate(120,137)"/>
<path d="M0 0 C2 1 2 1 2 1 Z " fill="#373737" transform="translate(122,136)"/>
<path d="M0 0 C2 1 2 1 2 1 Z " fill="#343434" transform="translate(323,135)"/>
<path d="M0 0 C2 1 2 1 2 1 Z " fill="#9D9D9D" transform="translate(124,135)"/>
<path d="M0 0 C2 1 2 1 2 1 Z " fill="#515151" transform="translate(321,134)"/>
<path d="M0 0 C2 1 2 1 2 1 Z " fill="#838383" transform="translate(126,134)"/>
<path d="M0 0 C2 1 2 1 2 1 Z " fill="#363636" transform="translate(128,133)"/>
<path d="M0 0 C2 1 2 1 2 1 Z " fill="#363636" transform="translate(318,132)"/>
<path d="M0 0 C2 1 2 1 2 1 Z " fill="#282828" transform="translate(130,132)"/>
<path d="M0 0 C2 1 2 1 2 1 Z " fill="#282828" transform="translate(316,131)"/>
<path d="M0 0 C2 1 2 1 2 1 Z " fill="#282828" transform="translate(132,131)"/>
<path d="" fill="#838383" transform="translate(0,0)"/>
<path d="M0 0 C2 1 2 1 2 1 Z " fill="#282828" transform="translate(314,130)"/>
<path d="M0 0 C2 1 2 1 2 1 Z " fill="#282828" transform="translate(312,129)"/>
<path d="M0 0 C2 1 2 1 2 1 Z " fill="#858585" transform="translate(137,129)"/>
<path d="M0 0 C2 1 2 1 2 1 Z " fill="#282828" transform="translate(139,128)"/>
<path d="M0 0 C2 1 2 1 2 1 Z " fill="#828282" transform="translate(307,127)"/>
<path d="M0 0 C2 1 2 1 2 1 Z " fill="#747474" transform="translate(305,126)"/>
<path d="M0 0 C2 1 2 1 2 1 Z " fill="#757575" transform="translate(144,126)"/>
<path d="M0 0 C2 1 2 1 2 1 Z " fill="#787878" transform="translate(91,125)"/>
<path d="M0 0 C2 1 2 1 2 1 Z " fill="#777777" transform="translate(300,124)"/>
<path d="M0 0 C2 1 2 1 2 1 Z " fill="#777777" transform="translate(149,124)"/>
<path d="M0 0 C2 1 2 1 2 1 Z " fill="#757575" transform="translate(118,124)"/>
<path d="M0 0 C2 1 2 1 2 1 Z " fill="#373737" transform="translate(89,124)"/>
<path d="M0 0 C2 1 2 1 2 1 Z " fill="#9C9C9C" transform="translate(120,123)"/>
<path d="M0 0 C2 1 2 1 2 1 Z " fill="#353535" transform="translate(87,123)"/>
<path d="M0 0 C2 1 2 1 2 1 Z " fill="#343434" transform="translate(122,122)"/>
<path d="M0 0 C2 1 2 1 2 1 Z " fill="#505050" transform="translate(85,122)"/>
<path d="M0 0 C2 1 2 1 2 1 Z " fill="#000000" transform="translate(125,120)"/>
<path d="M0 0 C2 1 2 1 2 1 Z " fill="#343434" transform="translate(82,120)"/>
<path d="M0 0 C2 1 2 1 2 1 Z " fill="#505050" transform="translate(46,111)"/>
<path d="M0 0 C2 1 2 1 2 1 Z " fill="#363636" transform="translate(43,109)"/>
<path d="M0 0 C2 1 2 1 2 1 Z " fill="#363636" transform="translate(41,108)"/>
<path d="M0 0 C2 1 2 1 2 1 Z " fill="#343434" transform="translate(12,108)"/>
<path d="" fill="#6A6A6A" transform="translate(0,0)"/>
<path d="M0 0 C2 1 2 1 2 1 Z " fill="#272727" transform="translate(39,107)"/>
<path d="M0 0 C2 1 2 1 2 1 Z " fill="#838383" transform="translate(14,107)"/>
<path d="M0 0 C2 1 2 1 2 1 Z " fill="#292929" transform="translate(16,106)"/>
<path d="" fill="#6A6A6A" transform="translate(0,0)"/>
<path d="M0 0 C2 1 2 1 2 1 Z " fill="#272727" transform="translate(294,100)"/>
<path d="M0 0 C2 1 2 1 2 1 Z " fill="#292929" transform="translate(265,100)"/>
<path d="M0 0 C2 1 2 1 2 1 Z " fill="#282828" transform="translate(200,100)"/>
<path d="M0 0 C2 1 2 1 2 1 Z " fill="#6A6A6A" transform="translate(175,100)"/>
<path d="M0 0 C2 1 2 1 2 1 Z " fill="#363636" transform="translate(296,99)"/>
<path d="M0 0 C2 1 2 1 2 1 Z " fill="#858585" transform="translate(263,99)"/>
<path d="M0 0 C2 1 2 1 2 1 Z " fill="#363636" transform="translate(202,99)"/>
<path d="M0 0 C2 1 2 1 2 1 Z " fill="#373737" transform="translate(173,99)"/>
<path d="M0 0 C2 1 2 1 2 1 Z " fill="#515151" transform="translate(261,98)"/>
<path d="M0 0 C2 1 2 1 2 1 Z " fill="#353535" transform="translate(171,98)"/>
<path d="M0 0 C2 1 2 1 2 1 Z " fill="#505050" transform="translate(299,97)"/>
<path d="M0 0 C2 1 2 1 2 1 Z " fill="#343434" transform="translate(259,97)"/>
<path d="M0 0 C2 1 2 1 2 1 Z " fill="#505050" transform="translate(205,97)"/>
<path d="M0 0 C2 1 2 1 2 1 Z " fill="#505050" transform="translate(169,97)"/>
<path d="" fill="#6A6A6A" transform="translate(0,0)"/>
<path d="M0 0 C2 1 2 1 2 1 Z " fill="#000000" transform="translate(256,95)"/>
<path d="M0 0 C2 1 2 1 2 1 Z " fill="#000000" transform="translate(166,95)"/>
<path d="" fill="#676767" transform="translate(0,0)"/>
<path d="" fill="#686868" transform="translate(0,0)"/>
<path d="" fill="#686868" transform="translate(0,0)"/>
<path d="" fill="#828282" transform="translate(0,0)"/>
<path d="" fill="#676767" transform="translate(0,0)"/>
<path d="" fill="#757575" transform="translate(0,0)"/>
<path d="M0 0 C2 1 2 1 2 1 Z " fill="#505050" transform="translate(73,53)"/>
<path d="" fill="#828282" transform="translate(0,0)"/>
<path d="M0 0 C2 1 2 1 2 1 Z " fill="#343434" transform="translate(119,51)"/>
<path d="M0 0 C2 1 2 1 2 1 Z " fill="#505050" transform="translate(77,50)"/>
<path d="M0 0 C2 1 2 1 2 1 Z " fill="#505050" transform="translate(116,49)"/>
<path d="M0 0 C2 1 2 1 2 1 Z " fill="#363636" transform="translate(80,48)"/>
<path d="M0 0 C2 1 2 1 2 1 Z " fill="#373737" transform="translate(112,47)"/>
<path d="M0 0 C2 1 2 1 2 1 Z " fill="#6B6B6B" transform="translate(110,46)"/>
<path d="" fill="#676767" transform="translate(0,0)"/>
<path d="" fill="#6A6A6A" transform="translate(0,0)"/>
<path d="" fill="#777777" transform="translate(0,0)"/>
<path d="" fill="#676767" transform="translate(0,0)"/>
<path d="M0 0 C2 1 2 1 2 1 Z " fill="#000000" transform="translate(207,16)"/>
<path d="M0 0 C2 1 2 1 2 1 Z " fill="#343434" transform="translate(304,15)"/>
<path d="M0 0 C2 1 2 1 2 1 Z " fill="#353535" transform="translate(381,14)"/>
<path d="M0 0 C2 1 2 1 2 1 Z " fill="#000000" transform="translate(260,14)"/>
<path d="M0 0 C2 1 2 1 2 1 Z " fill="#363636" transform="translate(301,13)"/>
<path d="M0 0 C2 1 2 1 2 1 Z " fill="#343434" transform="translate(203,13)"/>
<path d="M0 0 C2 1 2 1 2 1 Z " fill="#000000" transform="translate(474,12)"/>
<path d="M0 0 C2 1 2 1 2 1 Z " fill="#505050" transform="translate(384,12)"/>
<path d="M0 0 C2 1 2 1 2 1 Z " fill="#363636" transform="translate(299,12)"/>
<path d="M0 0 C2 1 2 1 2 1 Z " fill="#000000" transform="translate(263,12)"/>
<path d="M0 0 C2 1 2 1 2 1 Z " fill="#515151" transform="translate(201,12)"/>
<path d="M0 0 C2 1 2 1 2 1 Z " fill="#343434" transform="translate(166,12)"/>
<path d="M0 0 C2 1 2 1 2 1 Z " fill="#272727" transform="translate(297,11)"/>
<path d="M0 0 C2 1 2 1 2 1 Z " fill="#373737" transform="translate(265,11)"/>
<path d="M0 0 C2 1 2 1 2 1 Z " fill="#373737" transform="translate(199,11)"/>
<path d="M0 0 C2 1 2 1 2 1 Z " fill="#505050" transform="translate(387,10)"/>
<path d="M0 0 C2 1 2 1 2 1 Z " fill="#858585" transform="translate(267,10)"/>
<path d="M0 0 C2 1 2 1 2 1 Z " fill="#373737" transform="translate(197,10)"/>
<path d="M0 0 C2 1 2 1 2 1 Z " fill="#363636" transform="translate(169,10)"/>
<path d="M0 0 C2 1 2 1 2 1 Z " fill="#343434" transform="translate(470,9)"/>
<path d="M0 0 C2 1 2 1 2 1 Z " fill="#777777" transform="translate(195,9)"/>
<path d="M0 0 C2 1 2 1 2 1 Z " fill="#515151" transform="translate(468,8)"/>
<path d="M0 0 C2 1 2 1 2 1 Z " fill="#282828" transform="translate(390,8)"/>
<path d="M0 0 C2 1 2 1 2 1 Z " fill="#282828" transform="translate(392,7)"/>
<path d="M0 0 C2 1 2 1 2 1 Z " fill="#282828" transform="translate(465,6)"/>
<path d="M0 0 C2 1 2 1 2 1 Z " fill="#363636" transform="translate(394,6)"/>
<path d="M0 0 C2 1 2 1 2 1 Z " fill="#363636" transform="translate(463,5)"/>
<path d="M0 0 C2 1 2 1 2 1 Z " fill="#282828" transform="translate(396,5)"/>
<path d="M0 0 C2 1 2 1 2 1 Z " fill="#282828" transform="translate(461,4)"/>
<path d="M0 0 C2 1 2 1 2 1 Z " fill="#373737" transform="translate(398,4)"/>
<path d="M0 0 C2 1 2 1 2 1 Z " fill="#6A6A6A" transform="translate(401,3)"/>
<path d="M0 0 C2 1 2 1 2 1 Z " fill="#777777" transform="translate(456,2)"/>
<path d="" fill="#A1A1A1" transform="translate(0,0)"/>
<path d="" fill="#4B4B4B" transform="translate(0,0)"/>
<path d="" fill="#6A6A6A" transform="translate(0,0)"/>
<path d="" fill="#4A4A4A" transform="translate(0,0)"/>
<path d="" fill="#6A6A6A" transform="translate(0,0)"/>
<path d="" fill="#4B4B4B" transform="translate(0,0)"/>
<path d="" fill="#4B4B4B" transform="translate(0,0)"/>
<path d="" fill="#696969" transform="translate(0,0)"/>
<path d="" fill="#4A4A4A" transform="translate(0,0)"/>
<path d="" fill="#6A6A6A" transform="translate(0,0)"/>
<path d="" fill="#494949" transform="translate(0,0)"/>
<path d="" fill="#4A4A4A" transform="translate(0,0)"/>
<path d="" fill="#6A6A6A" transform="translate(0,0)"/>
<path d="" fill="#6A6A6A" transform="translate(0,0)"/>
<path d="" fill="#4A4A4A" transform="translate(0,0)"/>
<path d="" fill="#4A4A4A" transform="translate(0,0)"/>
<path d="" fill="#696969" transform="translate(0,0)"/>
<path d="" fill="#676767" transform="translate(0,0)"/>
<path d="" fill="#4A4A4A" transform="translate(0,0)"/>
<path d="" fill="#4B4B4B" transform="translate(0,0)"/>
<path d="" fill="#4B4B4B" transform="translate(0,0)"/>
<path d="" fill="#4B4B4B" transform="translate(0,0)"/>
<path d="" fill="#3B3B3B" transform="translate(0,0)"/>
<path d="" fill="#4B4B4B" transform="translate(0,0)"/>
<path d="" fill="#4B4B4B" transform="translate(0,0)"/>
<path d="" fill="#4A4A4A" transform="translate(0,0)"/>
<path d="" fill="#676767" transform="translate(0,0)"/>
<path d="" fill="#656565" transform="translate(0,0)"/>
<path d="" fill="#676767" transform="translate(0,0)"/>
<path d="" fill="#4A4A4A" transform="translate(0,0)"/>
<path d="" fill="#676767" transform="translate(0,0)"/>
<path d="" fill="#4A4A4A" transform="translate(0,0)"/>
<path d="" fill="#3B3B3B" transform="translate(0,0)"/>
<path d="" fill="#4B4B4B" transform="translate(0,0)"/>
<path d="" fill="#4B4B4B" transform="translate(0,0)"/>
<path d="" fill="#4B4B4B" transform="translate(0,0)"/>
<path d="" fill="#4B4B4B" transform="translate(0,0)"/>
<path d="" fill="#4B4B4B" transform="translate(0,0)"/>
<path d="" fill="#4B4B4B" transform="translate(0,0)"/>
<path d="" fill="#4B4B4B" transform="translate(0,0)"/>
<path d="" fill="#484848" transform="translate(0,0)"/>
<path d="" fill="#484848" transform="translate(0,0)"/>
<path d="" fill="#4C4C4C" transform="translate(0,0)"/>
<path d="" fill="#505050" transform="translate(0,0)"/>
<path d="" fill="#6D6D6D" transform="translate(0,0)"/>
<path d="" fill="#6F6F6F" transform="translate(0,0)"/>
<path d="" fill="#636363" transform="translate(0,0)"/>
<path d="" fill="#4B4B4B" transform="translate(0,0)"/>
<path d="" fill="#6A6A6A" transform="translate(0,0)"/>
<path d="" fill="#494949" transform="translate(0,0)"/>
<path d="" fill="#000000" transform="translate(0,0)"/>
<path d="" fill="#000000" transform="translate(0,0)"/>
<path d="" fill="#A0A0A0" transform="translate(0,0)"/>
<path d="" fill="#636363" transform="translate(0,0)"/>
<path d="" fill="#6A6A6A" transform="translate(0,0)"/>
<path d="" fill="#6A6A6A" transform="translate(0,0)"/>
<path d="" fill="#656565" transform="translate(0,0)"/>
<path d="" fill="#4A4A4A" transform="translate(0,0)"/>
<path d="" fill="#4B4B4B" transform="translate(0,0)"/>
<path d="" fill="#686868" transform="translate(0,0)"/>
<path d="" fill="#4B4B4B" transform="translate(0,0)"/>
<path d="" fill="#696969" transform="translate(0,0)"/>
<path d="" fill="#4B4B4B" transform="translate(0,0)"/>
<path d="" fill="#6A6A6A" transform="translate(0,0)"/>
<path d="" fill="#3C3C3C" transform="translate(0,0)"/>
<path d="" fill="#666666" transform="translate(0,0)"/>
<path d="" fill="#A1A1A1" transform="translate(0,0)"/>
<path d="" fill="#3C3C3C" transform="translate(0,0)"/>
<path d="" fill="#666666" transform="translate(0,0)"/>
<path d="" fill="#484848" transform="translate(0,0)"/>
<path d="" fill="#4B4B4B" transform="translate(0,0)"/>
<path d="" fill="#696969" transform="translate(0,0)"/>
<path d="" fill="#4A4A4A" transform="translate(0,0)"/>
<path d="" fill="#4B4B4B" transform="translate(0,0)"/>
<path d="" fill="#4A4A4A" transform="translate(0,0)"/>
<path d="" fill="#676767" transform="translate(0,0)"/>
<path d="" fill="#6A6A6A" transform="translate(0,0)"/>
<path d="" fill="#000000" transform="translate(0,0)"/>
<path d="" fill="#6A6A6A" transform="translate(0,0)"/>
<path d="" fill="#4A4A4A" transform="translate(0,0)"/>
<path d="" fill="#6A6A6A" transform="translate(0,0)"/>
<path d="" fill="#4A4A4A" transform="translate(0,0)"/>
<path d="" fill="#656565" transform="translate(0,0)"/>
<path d="" fill="#A1A1A1" transform="translate(0,0)"/>
<path d="" fill="#6A6A6A" transform="translate(0,0)"/>
<path d="" fill="#4B4B4B" transform="translate(0,0)"/>
<path d="" fill="#494949" transform="translate(0,0)"/>
<path d="" fill="#3B3B3B" transform="translate(0,0)"/>
<path d="" fill="#6A6A6A" transform="translate(0,0)"/>
<path d="" fill="#4B4B4B" transform="translate(0,0)"/>
<path d="" fill="#6C6C6C" transform="translate(0,0)"/>
<path d="" fill="#4C4C4C" transform="translate(0,0)"/>
<path d="" fill="#6D6D6D" transform="translate(0,0)"/>
<path d="" fill="#4B4B4B" transform="translate(0,0)"/>
<path d="" fill="#6A6A6A" transform="translate(0,0)"/>
<path d="" fill="#A2A2A2" transform="translate(0,0)"/>
<path d="" fill="#696969" transform="translate(0,0)"/>
<path d="" fill="#A1A1A1" transform="translate(0,0)"/>
<path d="" fill="#A3A3A3" transform="translate(0,0)"/>
<path d="" fill="#6A6A6A" transform="translate(0,0)"/>
<path d="" fill="#494949" transform="translate(0,0)"/>
<path d="" fill="#4A4A4A" transform="translate(0,0)"/>
<path d="" fill="#505050" transform="translate(0,0)"/>
<path d="" fill="#4B4B4B" transform="translate(0,0)"/>
<path d="" fill="#000000" transform="translate(0,0)"/>
<path d="" fill="#4B4B4B" transform="translate(0,0)"/>
<path d="" fill="#6C6C6C" transform="translate(0,0)"/>
<path d="" fill="#6A6A6A" transform="translate(0,0)"/>
<path d="" fill="#000000" transform="translate(0,0)"/>
<path d="" fill="#4A4A4A" transform="translate(0,0)"/>
<path d="" fill="#494949" transform="translate(0,0)"/>
<path d="" fill="#6A6A6A" transform="translate(0,0)"/>
<path d="" fill="#6A6A6A" transform="translate(0,0)"/>
<path d="" fill="#666666" transform="translate(0,0)"/>
<path d="" fill="#6D6D6D" transform="translate(0,0)"/>
<path d="" fill="#666666" transform="translate(0,0)"/>
<path d="" fill="#000000" transform="translate(0,0)"/>
<path d="" fill="#666666" transform="translate(0,0)"/>
<path d="" fill="#484848" transform="translate(0,0)"/>
<path d="" fill="#696969" transform="translate(0,0)"/>
<path d="" fill="#646464" transform="translate(0,0)"/>
<path d="" fill="#A1A1A1" transform="translate(0,0)"/>
<path d="" fill="#666666" transform="translate(0,0)"/>
<path d="" fill="#9C9C9C" transform="translate(0,0)"/>
<path d="" fill="#666666" transform="translate(0,0)"/>
<path d="" fill="#696969" transform="translate(0,0)"/>
<path d="" fill="#666666" transform="translate(0,0)"/>
<path d="" fill="#656565" transform="translate(0,0)"/>
<path d="" fill="#696969" transform="translate(0,0)"/>
<path d="" fill="#9B9B9B" transform="translate(0,0)"/>
<path d="" fill="#4D4D4D" transform="translate(0,0)"/>
<path d="" fill="#6D6D6D" transform="translate(0,0)"/>
<path d="" fill="#4A4A4A" transform="translate(0,0)"/>
<path d="" fill="#6A6A6A" transform="translate(0,0)"/>
<path d="" fill="#6C6C6C" transform="translate(0,0)"/>
<path d="" fill="#696969" transform="translate(0,0)"/>
<path d="" fill="#4A4A4A" transform="translate(0,0)"/>
<path d="" fill="#6A6A6A" transform="translate(0,0)"/>
<path d="" fill="#A0A0A0" transform="translate(0,0)"/>
<path d="" fill="#4A4A4A" transform="translate(0,0)"/>
<path d="" fill="#656565" transform="translate(0,0)"/>
<path d="" fill="#4A4A4A" transform="translate(0,0)"/>
<path d="" fill="#4A4A4A" transform="translate(0,0)"/>
<path d="" fill="#676767" transform="translate(0,0)"/>
<path d="" fill="#4B4B4B" transform="translate(0,0)"/>
<path d="" fill="#4B4B4B" transform="translate(0,0)"/>
<path d="" fill="#4B4B4B" transform="translate(0,0)"/>
<path d="" fill="#4A4A4A" transform="translate(0,0)"/>
<path d="" fill="#4A4A4A" transform="translate(0,0)"/>
<path d="" fill="#494949" transform="translate(0,0)"/>
<path d="" fill="#A3A3A3" transform="translate(0,0)"/>
<path d="" fill="#656565" transform="translate(0,0)"/>
<path d="" fill="#6A6A6A" transform="translate(0,0)"/>
<path d="" fill="#6A6A6A" transform="translate(0,0)"/>
<path d="" fill="#000000" transform="translate(0,0)"/>
<path d="" fill="#686868" transform="translate(0,0)"/>
<path d="" fill="#696969" transform="translate(0,0)"/>
<path d="" fill="#6A6A6A" transform="translate(0,0)"/>
<path d="" fill="#676767" transform="translate(0,0)"/>
<path d="" fill="#686868" transform="translate(0,0)"/>
<path d="" fill="#6A6A6A" transform="translate(0,0)"/>
<path d="" fill="#6D6D6D" transform="translate(0,0)"/>
<path d="" fill="#6A6A6A" transform="translate(0,0)"/>
<path d="" fill="#6D6D6D" transform="translate(0,0)"/>
<path d="" fill="#494949" transform="translate(0,0)"/>
<path d="" fill="#494949" transform="translate(0,0)"/>
<path d="" fill="#676767" transform="translate(0,0)"/>
<path d="" fill="#696969" transform="translate(0,0)"/>
<path d="" fill="#676767" transform="translate(0,0)"/>
<path d="" fill="#4D4D4D" transform="translate(0,0)"/>
<path d="" fill="#666666" transform="translate(0,0)"/>
<path d="" fill="#676767" transform="translate(0,0)"/>
<path d="" fill="#666666" transform="translate(0,0)"/>
<path d="" fill="#4A4A4A" transform="translate(0,0)"/>
<path d="" fill="#4A4A4A" transform="translate(0,0)"/>
<path d="" fill="#4A4A4A" transform="translate(0,0)"/>
<path d="" fill="#4A4A4A" transform="translate(0,0)"/>
<path d="" fill="#676767" transform="translate(0,0)"/>
<path d="" fill="#676767" transform="translate(0,0)"/>
<path d="" fill="#4A4A4A" transform="translate(0,0)"/>
<path d="" fill="#4B4B4B" transform="translate(0,0)"/>
<path d="" fill="#9E9E9E" transform="translate(0,0)"/>
<path d="" fill="#4B4B4B" transform="translate(0,0)"/>
<path d="" fill="#9F9F9F" transform="translate(0,0)"/>
<path d="" fill="#4A4A4A" transform="translate(0,0)"/>
<path d="" fill="#000000" transform="translate(0,0)"/>
<path d="" fill="#656565" transform="translate(0,0)"/>
<path d="" fill="#A0A0A0" transform="translate(0,0)"/>
<path d="" fill="#646464" transform="translate(0,0)"/>
<path d="" fill="#696969" transform="translate(0,0)"/>
<path d="" fill="#696969" transform="translate(0,0)"/>
<path d="" fill="#686868" transform="translate(0,0)"/>
<path d="" fill="#6A6A6A" transform="translate(0,0)"/>
<path d="" fill="#676767" transform="translate(0,0)"/>
<path d="" fill="#4A4A4A" transform="translate(0,0)"/>
<path d="" fill="#4A4A4A" transform="translate(0,0)"/>
<path d="" fill="#646464" transform="translate(0,0)"/>
<path d="" fill="#666666" transform="translate(0,0)"/>
<path d="" fill="#676767" transform="translate(0,0)"/>
<path d="" fill="#666666" transform="translate(0,0)"/>
<path d="" fill="#4A4A4A" transform="translate(0,0)"/>
<path d="" fill="#646464" transform="translate(0,0)"/>
<path d="" fill="#6A6A6A" transform="translate(0,0)"/>
<path d="" fill="#A0A0A0" transform="translate(0,0)"/>
<path d="" fill="#676767" transform="translate(0,0)"/>
<path d="" fill="#4A4A4A" transform="translate(0,0)"/>
<path d="" fill="#000000" transform="translate(0,0)"/>
<path d="" fill="#4A4A4A" transform="translate(0,0)"/>
<path d="" fill="#000000" transform="translate(0,0)"/>
<path d="" fill="#4B4B4B" transform="translate(0,0)"/>
<path d="" fill="#636363" transform="translate(0,0)"/>
<path d="" fill="#4A4A4A" transform="translate(0,0)"/>
<path d="" fill="#4B4B4B" transform="translate(0,0)"/>
<path d="" fill="#A0A0A0" transform="translate(0,0)"/>
<path d="" fill="#4A4A4A" transform="translate(0,0)"/>
<path d="" fill="#484848" transform="translate(0,0)"/>
<path d="" fill="#4B4B4B" transform="translate(0,0)"/>
<path d="" fill="#000000" transform="translate(0,0)"/>
<path d="" fill="#484848" transform="translate(0,0)"/>
<path d="" fill="#A1A1A1" transform="translate(0,0)"/>
<path d="" fill="#4A4A4A" transform="translate(0,0)"/>
<path d="" fill="#4A4A4A" transform="translate(0,0)"/>
<path d="" fill="#A1A1A1" transform="translate(0,0)"/>
<path d="" fill="#6A6A6A" transform="translate(0,0)"/>
<path d="" fill="#696969" transform="translate(0,0)"/>
<path d="" fill="#484848" transform="translate(0,0)"/>
<path d="" fill="#4A4A4A" transform="translate(0,0)"/>
<path d="" fill="#696969" transform="translate(0,0)"/>
<path d="" fill="#696969" transform="translate(0,0)"/>
<path d="" fill="#4A4A4A" transform="translate(0,0)"/>
<path d="" fill="#6A6A6A" transform="translate(0,0)"/>
<path d="" fill="#4D4D4D" transform="translate(0,0)"/>
<path d="" fill="#6C6C6C" transform="translate(0,0)"/>
<path d="" fill="#6A6A6A" transform="translate(0,0)"/>
<path d="" fill="#4C4C4C" transform="translate(0,0)"/>
<path d="" fill="#4B4B4B" transform="translate(0,0)"/>
<path d="" fill="#696969" transform="translate(0,0)"/>
<path d="" fill="#6B6B6B" transform="translate(0,0)"/>
<path d="" fill="#686868" transform="translate(0,0)"/>
<path d="" fill="#6D6D6D" transform="translate(0,0)"/>
</svg>
